<svg width="95" height="25" viewBox="0 0 95 25" fill="none" xmlns="http://www.w3.org/2000/svg">
<path d="M20.5377 3L13.8504 11.2069L10.8879 7.63558L14.6691 3H20.5377Z" fill="#042B2E"/>
<path d="M13.9476 13.0847L20.5172 21H15.022L11.2256 16.4207L13.9476 13.0847Z" fill="#042B2E"/>
<path d="M10.1666 8.52588L13.1239 12.0921L10.4019 15.4332L5.86356 21H0L7.44455 11.867L0.0818821 3H5.57704L10.1666 8.52588Z" fill="#042B2E"/>
<path d="M33.3576 20.2C32.3443 20.2 31.4176 20.0267 30.5776 19.68C29.7376 19.3333 29.0109 18.84 28.3976 18.2C27.7843 17.5467 27.3043 16.78 26.9576 15.9C26.6243 15.0067 26.4576 14.0333 26.4576 12.98C26.4576 11.9667 26.6376 11.0267 26.9976 10.16C27.3576 9.29333 27.8576 8.53333 28.4976 7.88C29.1376 7.22667 29.8843 6.72 30.7376 6.36C31.5909 6 32.5176 5.82 33.5176 5.82C34.1976 5.82 34.8576 5.92 35.4976 6.12C36.1376 6.32 36.7243 6.6 37.2576 6.96C37.7909 7.30667 38.2376 7.71333 38.5976 8.18L36.9376 10C36.5909 9.64 36.2309 9.34 35.8576 9.1C35.4976 8.84667 35.1176 8.66 34.7176 8.54C34.3309 8.40667 33.9309 8.34 33.5176 8.34C32.9043 8.34 32.3243 8.45333 31.7776 8.68C31.2443 8.90667 30.7776 9.22667 30.3776 9.64C29.9909 10.0533 29.6843 10.5467 29.4576 11.12C29.2309 11.68 29.1176 12.3067 29.1176 13C29.1176 13.7067 29.2243 14.3467 29.4376 14.92C29.6643 15.4933 29.9776 15.9867 30.3776 16.4C30.7909 16.8133 31.2776 17.1333 31.8376 17.36C32.4109 17.5733 33.0376 17.68 33.7176 17.68C34.1576 17.68 34.5843 17.62 34.9976 17.5C35.4109 17.38 35.7909 17.2133 36.1376 17C36.4976 16.7733 36.8243 16.5133 37.1176 16.22L38.3976 18.28C38.0776 18.64 37.6509 18.9667 37.1176 19.26C36.5843 19.5533 35.9843 19.7867 35.3176 19.96C34.6643 20.12 34.0109 20.2 33.3576 20.2ZM44.2295 20.2C43.3628 20.2 42.5761 19.96 41.8695 19.48C41.1628 19 40.5961 18.3467 40.1695 17.52C39.7428 16.6933 39.5295 15.7533 39.5295 14.7C39.5295 13.6467 39.7428 12.7067 40.1695 11.88C40.5961 11.0533 41.1761 10.4067 41.9095 9.94C42.6428 9.47333 43.4695 9.24 44.3895 9.24C44.9228 9.24 45.4095 9.32 45.8495 9.48C46.2895 9.62667 46.6761 9.84 47.0095 10.12C47.3428 10.4 47.6161 10.72 47.8295 11.08C48.0561 11.44 48.2095 11.8267 48.2895 12.24L47.7495 12.1V9.46H50.2295V20H47.7295V17.48L48.3095 17.38C48.2161 17.74 48.0428 18.0933 47.7895 18.44C47.5495 18.7733 47.2428 19.0733 46.8695 19.34C46.5095 19.5933 46.1028 19.8 45.6495 19.96C45.2095 20.12 44.7361 20.2 44.2295 20.2ZM44.9095 18.02C45.4828 18.02 45.9895 17.88 46.4295 17.6C46.8695 17.32 47.2095 16.9333 47.4495 16.44C47.7028 15.9333 47.8295 15.3533 47.8295 14.7C47.8295 14.06 47.7028 13.4933 47.4495 13C47.2095 12.5067 46.8695 12.12 46.4295 11.84C45.9895 11.56 45.4828 11.42 44.9095 11.42C44.3361 11.42 43.8295 11.56 43.3895 11.84C42.9628 12.12 42.6295 12.5067 42.3895 13C42.1495 13.4933 42.0295 14.06 42.0295 14.7C42.0295 15.3533 42.1495 15.9333 42.3895 16.44C42.6295 16.9333 42.9628 17.32 43.3895 17.6C43.8295 17.88 44.3361 18.02 44.9095 18.02ZM52.6815 20V9.46H55.1015L55.1415 12.82L54.8015 12.06C54.9482 11.5267 55.2015 11.0467 55.5615 10.62C55.9215 10.1933 56.3348 9.86 56.8015 9.62C57.2815 9.36667 57.7815 9.24 58.3015 9.24C58.5282 9.24 58.7415 9.26 58.9415 9.3C59.1548 9.34 59.3282 9.38667 59.4615 9.44L58.8015 12.14C58.6548 12.06 58.4748 11.9933 58.2615 11.94C58.0482 11.8867 57.8348 11.86 57.6215 11.86C57.2882 11.86 56.9682 11.9267 56.6615 12.06C56.3682 12.18 56.1082 12.3533 55.8815 12.58C55.6548 12.8067 55.4748 13.0733 55.3415 13.38C55.2215 13.6733 55.1615 14.0067 55.1615 14.38V20H52.6815ZM64.4903 20.2C63.5569 20.2 62.7169 19.9667 61.9703 19.5C61.2369 19.02 60.6503 18.3733 60.2103 17.56C59.7836 16.7333 59.5703 15.7867 59.5703 14.72C59.5703 13.6667 59.7836 12.7267 60.2103 11.9C60.6369 11.0733 61.2169 10.4267 61.9503 9.96C62.6969 9.48 63.5369 9.24 64.4703 9.24C64.9769 9.24 65.4636 9.32 65.9303 9.48C66.4103 9.64 66.8369 9.86 67.2103 10.14C67.5836 10.4067 67.8769 10.7067 68.0903 11.04C68.3169 11.3733 68.4436 11.72 68.4703 12.08L67.8103 12.16V5.2H70.2703V20H67.8903L67.8303 17.52L68.3103 17.56C68.2969 17.8933 68.1769 18.2133 67.9503 18.52C67.7369 18.8267 67.4569 19.1067 67.1103 19.36C66.7636 19.6133 66.3569 19.82 65.8903 19.98C65.4369 20.1267 64.9703 20.2 64.4903 20.2ZM64.9703 18.12C65.5436 18.12 66.0503 17.9733 66.4903 17.68C66.9303 17.3867 67.2703 16.9867 67.5103 16.48C67.7636 15.9733 67.8903 15.3867 67.8903 14.72C67.8903 14.0667 67.7636 13.4867 67.5103 12.98C67.2703 12.46 66.9303 12.06 66.4903 11.78C66.0503 11.4867 65.5436 11.34 64.9703 11.34C64.3969 11.34 63.8903 11.4867 63.4503 11.78C63.0103 12.06 62.6636 12.46 62.4103 12.98C62.1703 13.4867 62.0503 14.0667 62.0503 14.72C62.0503 15.3867 62.1703 15.9733 62.4103 16.48C62.6636 16.9867 63.0103 17.3867 63.4503 17.68C63.8903 17.9733 64.3969 18.12 64.9703 18.12ZM77.6028 20.2C76.4961 20.2 75.5161 19.9667 74.6628 19.5C73.8228 19.0333 73.1628 18.4 72.6828 17.6C72.2161 16.7867 71.9828 15.86 71.9828 14.82C71.9828 13.9933 72.1161 13.24 72.3828 12.56C72.6494 11.88 73.0161 11.2933 73.4828 10.8C73.9628 10.2933 74.5294 9.90667 75.1828 9.64C75.8494 9.36 76.5761 9.22 77.3628 9.22C78.0561 9.22 78.7028 9.35333 79.3028 9.62C79.9028 9.88667 80.4228 10.2533 80.8628 10.72C81.3028 11.1733 81.6361 11.72 81.8628 12.36C82.1028 12.9867 82.2161 13.6733 82.2028 14.42L82.1828 15.28H73.6428L73.1828 13.6H80.1228L79.8028 13.94V13.5C79.7628 13.0867 79.6294 12.7267 79.4028 12.42C79.1761 12.1 78.8828 11.8533 78.5228 11.68C78.1761 11.4933 77.7894 11.4 77.3628 11.4C76.7094 11.4 76.1561 11.5267 75.7028 11.78C75.2628 12.0333 74.9294 12.4 74.7028 12.88C74.4761 13.3467 74.3628 13.9333 74.3628 14.64C74.3628 15.32 74.5028 15.9133 74.7828 16.42C75.0761 16.9267 75.4828 17.32 76.0028 17.6C76.5361 17.8667 77.1561 18 77.8628 18C78.3561 18 78.8094 17.92 79.2228 17.76C79.6361 17.6 80.0828 17.3133 80.5628 16.9L81.7828 18.6C81.4228 18.9333 81.0094 19.22 80.5428 19.46C80.0894 19.6867 79.6094 19.8667 79.1028 20C78.5961 20.1333 78.0961 20.2 77.6028 20.2ZM90.7429 20L87.7429 15.94L87.1829 15.18L82.8429 9.46H85.8829L88.8029 13.42L89.4229 14.26L93.7229 20H90.7429ZM82.8229 20L87.0029 14.4L88.4029 16.08L85.7229 20H82.8229ZM89.4229 15.08L88.0829 13.42L90.5029 9.46H93.4029L89.4229 15.08Z" fill="black"/>
</svg>
