<svg width="345" height="200" viewBox="0 0 345 200" fill="none" xmlns="http://www.w3.org/2000/svg">
<g clip-path="url(#clip0_7_1724)">
<path d="M54.8689 189.973C65.8985 180.913 67.325 165.688 65.763 152.239C65.5 149.992 65.5558 147.601 64.3126 145.714C63.0694 143.827 60.4395 142.683 58.479 143.803C56.8852 144.73 56.2795 146.737 55.4666 148.425C54.3738 150.691 52.667 152.603 50.5416 153.942C49.1549 154.806 47.4017 155.405 45.9035 154.742C43.8553 153.83 43.4091 151.167 43.2417 148.928C42.9229 144.754 42.6095 140.578 42.3013 136.398C42.2489 134.148 41.8344 131.92 41.0741 129.802C40.1974 127.739 38.484 125.891 36.2925 125.476C34.1009 125.06 31.5109 126.499 31.2558 128.73C31.2456 129.666 31.2988 130.601 31.4152 131.529C31.4605 131.993 31.3701 132.46 31.1549 132.873C30.9398 133.286 30.6093 133.628 30.2039 133.856C29.3273 134.192 28.371 133.632 27.6378 133.056C25.1195 130.993 23.2945 128.21 21.5811 125.436C19.8677 122.661 18.1862 119.838 15.8671 117.52C13.548 115.201 10.4559 113.521 7.20443 113.601C3.95294 113.681 0.661612 115.96 0.103759 119.199C-0.454094 122.437 1.65778 125.476 3.88919 127.859C7.21262 131.379 11.0239 134.4 15.2056 136.83C16.007 137.189 16.6741 137.794 17.1103 138.557C17.7239 140.013 16.417 141.612 14.9745 142.228C13.3328 142.923 11.484 142.899 9.73867 143.251C7.99339 143.603 6.14451 144.531 5.61056 146.234C4.87738 148.633 7.00519 150.84 9.0294 152.255C13.1087 155.089 17.6388 157.206 22.4258 158.516C24.1392 158.98 25.9323 159.363 27.3668 160.411C28.8013 161.458 29.7576 163.401 29.0962 165.049C28.4347 166.696 26.3786 167.368 24.6094 167.192C22.8402 167.016 21.2065 166.208 19.4931 165.728C16.3054 164.825 12.3207 165.369 10.5197 168.191C9.98708 169.154 9.68726 170.228 9.64435 171.328C9.60144 172.428 9.81664 173.523 10.2726 174.524C11.2003 176.515 12.5174 178.299 14.1457 179.77C19.5701 185.235 26.3394 189.164 33.7662 191.156C41.1777 193.035 47.9117 193.155 54.8689 189.973Z" fill="#EBEBEB"/>
<path d="M55.8332 199.96C54.6877 193.757 52.9448 187.681 50.6292 181.817C47.7679 174.653 44.4923 167.663 40.819 160.883L37.9421 155.541C37.0017 153.782 36.0693 152.039 35.0492 150.392C33.0944 147.234 30.9659 144.188 28.6738 141.268C26.4981 138.461 24.3225 135.871 22.2983 133.472C20.2741 131.073 18.3136 128.874 16.4249 126.939C13.4859 123.88 10.3124 121.056 6.93345 118.495C5.73805 117.583 4.78173 116.896 4.13622 116.464L3.39507 115.952C3.31043 115.894 3.22263 115.841 3.13208 115.792C3.13208 115.792 3.21177 115.864 3.37116 115.984L4.09637 116.52C4.73391 116.984 5.69023 117.671 6.85376 118.599C10.1941 121.194 13.3349 124.038 16.2496 127.107C18.1064 129.042 20.051 131.249 22.0911 133.656C24.1312 136.063 26.283 138.653 28.4666 141.46C30.7579 144.375 32.8863 147.416 34.842 150.568C35.8541 152.207 36.7786 153.942 37.7189 155.701L40.572 161.051C44.2147 167.821 47.4766 174.792 50.3424 181.928C52.6606 187.772 54.4218 193.823 55.6021 200" fill="#E0E0E0"/>
<path d="M34.9853 150.352C35.0601 150.032 35.1028 149.705 35.1128 149.376C35.1766 148.752 35.2403 147.833 35.3041 146.705C35.4395 144.45 35.5192 141.332 35.5989 137.91C35.6786 134.487 35.8061 131.353 35.9894 129.114C36.0691 127.986 36.1568 127.083 36.2205 126.451C36.267 126.128 36.2883 125.802 36.2843 125.476C36.1858 125.788 36.119 126.109 36.0851 126.435C35.9815 127.059 35.8619 127.97 35.7503 129.09C35.5033 131.345 35.3359 134.463 35.2562 137.886C35.1766 141.308 35.1208 144.387 35.073 146.681C35.0331 147.761 35.0092 148.664 34.9853 149.352C34.9531 149.685 34.9531 150.019 34.9853 150.352Z" fill="#E0E0E0"/>
<path d="M5.4751 147.377H5.77793H6.64659C7.39571 147.377 8.47953 147.377 9.83432 147.417C12.52 147.473 16.2098 147.681 20.314 148.105C24.4182 148.529 28.0681 149.072 30.7139 149.544C32.0369 149.776 33.1047 149.984 33.8459 150.128L34.6906 150.296C34.8899 150.296 34.9935 150.344 34.9935 150.296C34.9038 150.248 34.8068 150.216 34.7066 150.2L33.8698 149.968C33.1446 149.784 32.0767 149.536 30.7538 149.28C28.116 148.745 24.4341 148.161 20.3459 147.729C16.2576 147.297 12.5359 147.137 9.83432 147.145C8.4875 147.145 7.44352 147.145 6.64659 147.217L5.7859 147.273C5.6775 147.291 5.5726 147.326 5.4751 147.377Z" fill="#E0E0E0"/>
<path d="M50.2627 181.305C50.3254 181.184 50.3787 181.058 50.4221 180.929C50.5337 180.649 50.6612 180.289 50.8285 179.85C51.1792 178.906 51.6255 177.523 52.2152 175.852C53.3389 172.437 54.7494 167.671 56.2477 162.386C57.7459 157.101 59.1086 152.335 60.1765 148.905C60.7105 147.225 61.1408 145.85 61.4596 144.842C61.603 144.395 61.7146 144.043 61.8023 143.739C61.8512 143.613 61.886 143.481 61.9059 143.347C61.8348 143.462 61.7786 143.586 61.7385 143.715C61.6349 144.003 61.4994 144.363 61.3321 144.802C60.9814 145.746 60.5352 147.121 59.9534 148.801C58.8218 152.215 57.4112 156.981 55.9209 162.266C54.4307 167.552 53.0838 172.333 51.9841 175.748C51.4581 177.427 51.0198 178.802 50.709 179.802C50.5655 180.257 50.454 180.601 50.3583 180.913C50.3138 181.04 50.2817 181.172 50.2627 181.305Z" fill="#E0E0E0"/>
<path d="M10.6233 172.165C10.7467 172.225 10.8784 172.265 11.0138 172.285L12.1693 172.557L16.425 173.533C20.0112 174.332 24.9521 175.556 30.4111 176.899C35.8701 178.242 40.8191 179.41 44.4212 180.177C46.2223 180.561 47.6806 180.857 48.6928 181.041L49.8563 181.249C49.9924 181.28 50.1311 181.299 50.2707 181.305C50.144 181.247 50.0099 181.206 49.8722 181.185L48.7167 180.913L44.469 179.938C40.8828 179.138 35.9418 177.915 30.4908 176.571C25.0398 175.228 20.0829 174.06 16.4807 173.293C14.6797 172.909 13.2213 172.613 12.2092 172.429L11.0377 172.213C10.9011 172.186 10.7625 172.17 10.6233 172.165Z" fill="#E0E0E0"/>
<path d="M327.228 117.16C327.228 117.16 323.491 113.449 316.207 122.717C312.388 127.408 308.882 132.347 305.711 137.502C305.711 137.502 303.894 139.389 302.699 137.678C301.503 135.967 300.268 131.553 297.606 131.777C294.945 132 293.415 134.751 293.056 139.141C292.697 143.531 291.574 153.134 291.462 153.998C291.351 154.862 290.665 155.989 289.637 154.957C288.609 153.926 283.437 145.146 279.412 147.849C275.388 150.552 276.408 162.978 276.496 164.329C276.583 165.68 276.217 166.192 275.547 166.384C274.878 166.576 273.404 163.457 271.818 161.019C270.232 158.58 267.977 156.013 265.793 157.78C263.609 159.547 261.29 168.239 266.805 184.207L269.841 191.404L277.611 192.515C294.403 193.867 302.213 189.445 303.368 186.878C304.524 184.311 301.495 182.76 298.738 181.833C295.981 180.905 292.602 180.233 292.626 179.554C292.65 178.874 293.04 178.378 294.371 178.122C295.702 177.866 307.919 175.724 309.513 171.158C311.106 166.592 301.344 163.729 300.093 163.01C298.842 162.29 299.766 161.306 300.563 160.995C301.36 160.683 310.349 157.172 314.501 155.733C318.653 154.294 320.941 152.199 320.47 149.464C320 146.729 315.45 146.737 313.497 145.994C311.545 145.25 312.916 143.027 312.916 143.027C317.114 138.667 321.019 134.032 324.607 129.154C331.723 119.75 327.085 117.008 327.085 117.008" fill="#EBEBEB"/>
<path d="M320.662 125.412C320.626 125.483 320.583 125.55 320.534 125.612L320.128 126.187C319.745 126.699 319.211 127.427 318.534 128.354C317.139 130.233 315.107 132.936 312.573 136.263C307.512 142.915 300.436 152.047 292.578 162.09L272.479 187.846L266.415 195.674L264.757 197.793L264.319 198.337C264.215 198.457 264.167 198.521 264.159 198.513C264.195 198.442 264.238 198.375 264.287 198.313L264.693 197.745L266.287 195.57C267.674 193.691 269.714 190.988 272.24 187.662C277.301 181.009 284.385 171.877 292.251 161.834C300.117 151.791 307.186 142.692 312.342 136.079C314.884 132.792 316.956 130.13 318.406 128.258C319.108 127.355 319.666 126.659 320.056 126.131L320.502 125.588C320.598 125.468 320.654 125.404 320.662 125.412Z" fill="#E0E0E0"/>
<path d="M299.089 138.022C299.262 138.707 299.361 139.41 299.384 140.117C299.503 141.412 299.607 143.211 299.679 145.202C299.75 147.193 299.782 148.841 299.822 150.288C299.881 150.99 299.881 151.696 299.822 152.399C299.649 151.713 299.553 151.011 299.535 150.304C299.432 149 299.344 147.201 299.272 145.218C299.2 143.235 299.153 141.58 299.097 140.133C299.033 139.431 299.031 138.724 299.089 138.022Z" fill="#E0E0E0"/>
<path d="M300.491 152.679C303.218 152.237 305.966 151.935 308.724 151.775C313.274 151.399 316.98 151.183 316.988 151.295C314.261 151.732 311.513 152.031 308.756 152.191C304.205 152.575 300.507 152.79 300.491 152.679Z" fill="#E0E0E0"/>
<path d="M287.27 168.095C287.985 168.151 288.694 168.266 289.39 168.439C290.697 168.687 292.49 169.031 294.483 169.351C296.475 169.67 298.284 169.91 299.599 170.078C300.316 170.136 301.028 170.251 301.727 170.422C301.01 170.484 300.288 170.468 299.575 170.374C298.244 170.278 296.387 170.086 294.419 169.758C292.45 169.431 290.617 169.047 289.326 168.727C288.62 168.591 287.931 168.379 287.27 168.095Z" fill="#E0E0E0"/>
<path d="M283.094 155.125C283.425 155.705 283.692 156.319 283.891 156.957C284.314 158.116 284.879 159.715 285.485 161.49C286.091 163.266 286.601 164.881 286.959 166.064C287.184 166.69 287.349 167.335 287.453 167.991C287.118 167.411 286.85 166.794 286.657 166.152C286.226 165.001 285.668 163.401 285.063 161.626C284.457 159.851 283.947 158.228 283.588 157.053C283.354 156.43 283.189 155.784 283.094 155.125Z" fill="#E0E0E0"/>
<path d="M269.698 167.248C270.082 168.008 270.407 168.796 270.67 169.606C271.22 171.086 271.953 173.133 272.742 175.404C273.531 177.675 274.217 179.738 274.703 181.233C275.002 182.033 275.234 182.857 275.396 183.696C275.006 182.925 274.681 182.122 274.424 181.297C273.874 179.826 273.141 177.778 272.352 175.508C271.563 173.237 270.869 171.174 270.391 169.67C270.093 168.884 269.861 168.073 269.698 167.248Z" fill="#E0E0E0"/>
<path d="M275.372 183.264C276.28 183.316 277.183 183.433 278.074 183.616C279.731 183.88 282.058 184.239 284.569 184.575C287.079 184.911 289.414 185.167 291.08 185.375C291.987 185.435 292.89 185.555 293.781 185.735C292.873 185.79 291.961 185.769 291.056 185.671C289.374 185.559 287.071 185.351 284.513 185.007C281.955 184.663 279.668 184.263 278.018 183.936C277.119 183.784 276.234 183.56 275.372 183.264Z" fill="#E0E0E0"/>
<path d="M345 198.721C345 198.841 268.773 198.937 174.775 198.937C80.7771 198.937 4.52661 198.857 4.52661 198.721C4.52661 198.585 80.7373 198.497 174.775 198.497C268.813 198.497 345 198.617 345 198.721Z" fill="#263238"/>
<path d="M88.7942 147.937L64.7349 123.685L76.8323 101.391C88.9297 85.8468 114.543 86.8463 114.543 86.8463C127.179 85.9845 139.874 86.7666 152.31 89.1732C172.655 93.1712 171.014 106.653 171.014 106.653L173.739 156.685L176.664 197.425L101.633 198.944L88.7942 147.969" fill="#042B2E"/>
<path d="M129.215 196.562L62.0093 197.361C58.3071 197.405 54.6547 196.503 51.3951 194.741C48.1356 192.979 45.3759 190.415 43.3752 187.289C41.3745 184.163 40.1985 180.578 39.9576 176.871C39.7168 173.164 40.419 169.456 41.9983 166.096L70.7357 112.626L96.9149 130.377L79.0557 167.536L133.454 168.511L129.215 196.562Z" fill="#042B2E"/>
<path d="M168.639 98.4968L222.567 182.041L191.104 184.104C191.104 184.104 172.313 154.398 172.735 155.006C173.484 156.125 168.639 98.4968 168.639 98.4968Z" fill="#042B2E"/>
<path d="M95.5601 135.183C95.5621 135.036 95.5863 134.891 95.6318 134.751C95.7115 134.432 95.7992 134.032 95.9187 133.536C96.1658 132.489 96.5324 130.969 96.9069 129.082C97.2815 127.195 97.7039 124.924 97.9669 122.397C98.2905 119.659 98.2905 116.892 97.9669 114.153C97.5345 111.438 96.5905 108.83 95.1856 106.469C94.0564 104.525 92.7204 102.71 91.2009 101.056C90.1767 99.9246 89.0856 98.8565 87.9335 97.8571C87.4943 97.5123 87.0739 97.1439 86.6743 96.7537C86.804 96.8183 86.9269 96.896 87.0409 96.9855C87.2641 97.1535 87.6227 97.3854 88.0371 97.7292C89.2355 98.6786 90.3647 99.7127 91.4161 100.824C92.9869 102.466 94.3664 104.282 95.5282 106.237C96.9826 108.635 97.9571 111.294 98.3972 114.065C98.7128 116.838 98.6913 119.638 98.3334 122.405C98.0643 124.657 97.6813 126.893 97.1859 129.106C96.7715 131.001 96.3889 132.512 96.0622 133.552C95.9187 134.072 95.7912 134.472 95.7036 134.743C95.67 134.894 95.6219 135.042 95.5601 135.183Z" fill="#263238"/>
<path d="M93.3924 138.062C93.2774 138.478 93.1226 138.883 92.9302 139.269C92.6114 140.069 92.1332 141.14 91.5196 142.468C90.3003 145.178 88.571 148.905 86.5786 152.983C84.5863 157.061 82.7055 160.715 81.3109 163.378C80.6096 164.689 80.0358 165.776 79.6294 166.472C79.4353 166.859 79.2115 167.231 78.96 167.584C79.1031 167.175 79.279 166.78 79.4859 166.4C79.8924 165.601 80.4184 164.529 81.0798 163.242L86.236 152.847C88.1884 148.793 89.9656 145.13 91.2885 142.388C91.9101 141.1 92.4201 140.029 92.8186 139.189C92.9781 138.798 93.17 138.421 93.3924 138.062Z" fill="#263238"/>
<path d="M129.215 196.562C129.215 196.562 129.215 196.514 129.215 196.426C129.215 196.338 129.215 196.178 129.215 196.01C129.254 195.626 129.31 195.09 129.374 194.411C129.533 192.987 129.757 190.964 130.035 188.414C130.625 183.24 131.47 175.964 132.426 167.384L132.618 167.592H112.766L78.0914 167.536L67.5719 167.472L64.7109 167.432H63.9618H63.7068C63.7915 167.421 63.8771 167.421 63.9618 167.432H64.7109L67.5719 167.392L78.0914 167.328L112.822 167.272H132.673H132.888V167.48C131.837 176.051 130.952 183.328 130.314 188.494C129.996 191.036 129.733 193.059 129.517 194.483C129.432 195.154 129.361 195.687 129.302 196.082L129.239 196.49C129.231 196.514 129.223 196.562 129.215 196.562Z" fill="#263238"/>
<path d="M79.5259 168.127C79.0446 167.594 78.5974 167.031 78.1871 166.44C76.0393 163.735 73.3797 161.482 70.3612 159.811C69.7166 159.498 69.0888 159.151 68.4805 158.772C69.1879 158.938 69.8672 159.208 70.4967 159.572C73.6405 161.13 76.3592 163.432 78.4182 166.28C78.8707 166.842 79.2435 167.463 79.5259 168.127Z" fill="#263238"/>
<path d="M174.855 173.421C174.797 173.193 174.759 172.96 174.743 172.725C174.688 172.237 174.616 171.574 174.52 170.734C174.337 169.007 174.09 166.504 173.827 163.41C173.277 157.213 172.647 148.641 172.09 139.173C171.532 129.706 171.141 121.118 170.918 114.905C170.807 111.794 170.727 109.308 170.695 107.54C170.695 106.701 170.695 106.037 170.655 105.541C170.643 105.31 170.643 105.077 170.655 104.846C170.699 105.075 170.723 105.308 170.727 105.541C170.727 106.029 170.791 106.701 170.838 107.54C170.926 109.316 171.046 111.818 171.197 114.889C171.492 121.102 171.93 129.674 172.488 139.149C173.046 148.625 173.636 157.181 174.082 163.386C174.321 166.448 174.512 168.983 174.648 170.726C174.711 171.526 174.759 172.229 174.799 172.717C174.839 172.95 174.858 173.185 174.855 173.421Z" fill="#263238"/>
<path d="M114.862 127.963C114.865 127.596 114.894 127.23 114.949 126.867C115.045 126.108 115.165 125.092 115.316 123.845C115.667 121.206 116.113 117.592 116.703 113.402L117.005 113.594L111.849 117.216L106.606 120.878L106.231 121.142L106.295 120.686C106.932 116.536 107.474 112.954 107.889 110.291C108.096 109.068 108.255 108.06 108.383 107.309C108.425 106.948 108.5 106.592 108.606 106.245C108.606 106.61 108.574 106.974 108.51 107.333C108.415 108.084 108.295 109.092 108.136 110.331C107.777 112.954 107.275 116.544 106.701 120.726L106.398 120.534L111.634 116.856L116.798 113.25L117.173 112.986L117.109 113.442C116.495 117.616 115.961 121.23 115.579 123.837C115.38 125.076 115.22 126.092 115.101 126.843C115.055 127.223 114.975 127.597 114.862 127.963Z" fill="#E0E0E0"/>
<path d="M144.858 131.201C144.571 130.972 144.305 130.717 144.061 130.441C143.543 129.882 142.842 129.138 141.981 128.226L134.865 120.486L135.208 120.366C135.04 122.325 134.865 124.452 134.682 126.659C134.498 128.866 134.307 131.057 134.14 133.056L134.1 133.52L133.797 133.176L126.872 125.34L124.895 123.053C124.644 122.791 124.419 122.505 124.226 122.197C124.512 122.442 124.779 122.709 125.023 122.997L127.079 125.204L134.108 132.936L133.765 133.056C133.932 131.065 134.108 128.906 134.299 126.659C134.49 124.412 134.666 122.325 134.833 120.366L134.873 119.91L135.176 120.246L142.189 128.09L144.189 130.385C144.433 130.639 144.657 130.912 144.858 131.201Z" fill="#E0E0E0"/>
<path d="M159.952 130.13C159.804 130.467 159.622 130.788 159.41 131.089L157.817 133.664L152.126 142.524L151.935 142.22L158.119 141.148L164.415 140.085L164.869 140.005L164.654 140.349L158.837 149.033L157.083 151.543C156.889 151.851 156.67 152.142 156.43 152.415C156.587 152.088 156.768 151.772 156.972 151.471L158.566 148.913L164.264 140.117L164.463 140.421L158.167 141.516L151.959 142.572L151.505 142.644L151.76 142.268L157.57 133.472L159.275 130.953C159.484 130.665 159.71 130.39 159.952 130.13Z" fill="#E0E0E0"/>
<path d="M139.878 145.626C139.728 145.96 139.546 146.279 139.336 146.578L137.742 149.161L132.06 158.012L131.86 157.708L138.061 156.637L144.364 155.565L144.819 155.493L144.556 155.869L138.738 164.561L137.025 167.056C136.834 167.364 136.616 167.653 136.371 167.92C136.531 167.593 136.712 167.278 136.913 166.976C137.327 166.336 137.869 165.481 138.507 164.425L144.205 155.629L144.404 155.933L138.108 157.029L131.9 158.076L131.446 158.156L131.701 157.772L137.511 148.977C138.212 147.937 138.786 147.09 139.224 146.458C139.422 146.165 139.64 145.887 139.878 145.626Z" fill="#E0E0E0"/>
<path d="M183.254 129.954C183.096 130.283 182.915 130.601 182.713 130.905L181.119 133.488L175.437 142.34L175.237 142.036L181.437 140.964L187.741 139.893L188.195 139.821L187.94 140.197L182.115 148.889C181.414 149.912 180.84 150.752 180.401 151.375C180.213 151.687 179.994 151.979 179.748 152.247C179.909 151.92 180.093 151.604 180.298 151.303L181.892 148.753L187.59 139.957L187.789 140.261L181.493 141.348L175.285 142.404L174.839 142.484L175.086 142.1L180.896 133.304L182.609 130.785C182.797 130.488 183.013 130.209 183.254 129.954Z" fill="#E0E0E0"/>
<path d="M81.6856 117.112C81.5297 117.443 81.3485 117.761 81.1437 118.063L79.5499 120.646L73.8677 129.506L73.6685 129.202L79.8686 128.123L86.1724 127.059L86.6266 126.979L86.3716 127.363L80.546 136.047L78.8406 138.542C78.647 138.847 78.4284 139.136 78.1871 139.405C78.3398 139.078 78.5212 138.765 78.729 138.47L80.3229 135.911C81.7653 133.696 83.7417 130.657 86.0209 127.115L86.2202 127.419L79.9244 128.514L73.7163 129.57L73.27 129.642L73.5171 129.266C75.8521 125.748 77.8603 122.709 79.3267 120.47L81.0401 117.951C81.2329 117.655 81.4488 117.374 81.6856 117.112Z" fill="#E0E0E0"/>
<path d="M50.1748 176.907C50.4433 177.15 50.6888 177.418 50.908 177.707L52.8525 180.05L59.4591 188.23L59.1084 188.326C59.3953 186.383 59.6981 184.272 60.0249 182.073C60.3516 179.874 60.6704 177.707 60.9653 175.732L61.029 175.276L61.3159 175.644L67.7392 183.896L69.5642 186.295C69.796 186.572 70.004 186.869 70.1858 187.182C69.9241 186.935 69.6816 186.667 69.4606 186.383L67.5479 184.048L61.0529 175.884L61.4036 175.796C61.1167 177.771 60.8059 179.914 60.4791 182.137C60.1524 184.36 59.8416 186.439 59.5467 188.382L59.483 188.837L59.1961 188.478L52.6931 180.21L50.8363 177.811C50.5958 177.525 50.3748 177.223 50.1748 176.907Z" fill="#E0E0E0"/>
<path d="M122.138 138.19C121.781 138.267 121.419 138.315 121.054 138.334L118.026 138.598L107.554 139.397L107.682 139.061L112.272 143.379L116.918 147.777L117.253 148.097H116.79L106.375 148.673L103.362 148.801C103.002 148.832 102.639 148.832 102.278 148.801C102.633 148.729 102.993 148.684 103.354 148.665L106.359 148.425L116.767 147.705L116.647 148.041L111.985 143.659L107.411 139.325L107.076 139.005H107.53L118.01 138.374L121.038 138.222C121.403 138.183 121.771 138.173 122.138 138.19Z" fill="#E0E0E0"/>
<path d="M104.478 178.49C104.744 178.741 104.994 179.008 105.227 179.29L107.211 181.593L113.993 189.637L113.643 189.733C113.89 187.782 114.161 185.671 114.439 183.472C114.718 181.273 115.005 179.09 115.236 177.115L115.3 176.651L115.587 177.011L122.186 185.127L124.058 187.526C124.291 187.804 124.504 188.098 124.696 188.406C124.427 188.16 124.179 187.893 123.955 187.606L121.994 185.311L115.3 177.315L115.643 177.211C115.396 179.194 115.125 181.337 114.846 183.568C114.567 185.799 114.288 187.886 114.049 189.837L113.985 190.293L113.698 189.941L107.028 181.801L105.131 179.402C104.884 179.121 104.665 178.815 104.478 178.49Z" fill="#E0E0E0"/>
<path d="M72.9114 148.937C72.5548 149.015 72.1923 149.063 71.8276 149.081L68.8072 149.336L58.3355 150.136L58.4551 149.792L63.0534 154.118L67.6995 158.516L68.0342 158.836H67.572L57.1561 159.412L54.1437 159.54C53.791 159.57 53.4364 159.57 53.0837 159.54C53.4378 159.463 53.7977 159.418 54.1596 159.404L57.164 159.164L67.572 158.436L67.4524 158.78L62.7904 154.398L58.208 150.064L57.8813 149.744H58.3355L68.8152 149.105L71.8435 148.961C72.1984 148.926 72.5554 148.918 72.9114 148.937Z" fill="#E0E0E0"/>
<path d="M100.031 177.587C99.6741 177.663 99.3116 177.708 98.9471 177.723L95.9188 177.987L85.4471 178.786L85.5746 178.442L90.1649 182.768L94.811 187.166L95.1457 187.486H94.6915L84.2676 188.054L81.2552 188.19C80.8946 188.221 80.532 188.221 80.1714 188.19C80.5254 188.113 80.8854 188.068 81.2472 188.054L84.2517 187.814L94.6596 187.086L94.5401 187.43L89.878 183.048L85.3036 178.73L84.9689 178.418H85.4232L95.9028 177.779L98.9391 177.635C99.3009 177.586 99.6663 177.57 100.031 177.587Z" fill="#E0E0E0"/>
<path d="M161.243 104.694C160.886 104.77 160.524 104.819 160.16 104.838L157.131 105.094L146.667 105.893L146.787 105.557L151.377 109.875L156.023 114.273L156.358 114.593H155.904L145.48 115.169L142.468 115.297C142.107 115.328 141.744 115.328 141.384 115.297C141.738 115.22 142.098 115.175 142.46 115.161L145.464 114.921L155.88 114.201L155.752 114.537L151.106 110.163L146.532 105.829L146.197 105.509H146.652L157.131 104.87L160.167 104.726C160.525 104.688 160.884 104.677 161.243 104.694Z" fill="#E0E0E0"/>
<path d="M131.47 177.587C131.47 177.587 144.874 173.709 149.313 172.573C151.042 172.133 158.446 176.052 163.562 179.314C163.562 179.314 170.607 183.504 170.041 184.791C169.412 186.215 166.854 185.927 162.67 183.992C162.67 183.992 164.12 188.206 161.275 188.11C161.275 188.11 162.686 192.668 160.024 193.139C157.362 193.611 156.741 187.798 154.398 187.486C152.055 187.174 147.225 186.854 147.225 186.854C147.225 186.854 143.185 193.571 140.053 194.051C136.921 194.531 129.693 193.675 129.693 193.675L131.47 177.587Z" fill="#FFBE9D"/>
<path d="M154.35 178.514C155.662 179.101 156.916 179.81 158.095 180.633C159.347 181.344 160.526 182.174 161.618 183.112C159.051 181.822 156.617 180.282 154.35 178.514Z" fill="#EB996E"/>
<path d="M153.561 181.129C155.092 181.613 156.579 182.225 158.008 182.96C159.484 183.562 160.907 184.287 162.263 185.127C160.732 184.649 159.244 184.039 157.816 183.304C156.337 182.705 154.913 181.977 153.561 181.129Z" fill="#EB996E"/>
<path d="M154.995 187.374C157.02 187.367 159.036 187.636 160.988 188.174C158.964 188.179 156.948 187.911 154.995 187.374Z" fill="#EB996E"/>
<path d="M114.025 38.7974C114.183 39.3156 114.185 39.8689 114.032 40.3884C113.878 40.9078 113.575 41.3703 113.161 41.7183C112.747 42.0662 112.241 42.2842 111.704 42.3449C111.167 42.4057 110.625 42.3065 110.144 42.0599C108.327 41.1403 108.096 38.6215 108.455 36.6145C108.813 34.6075 109.491 32.4565 108.654 30.5934C108.008 29.1701 106.614 28.2665 105.53 27.147C104.573 26.174 103.855 24.9918 103.43 23.6932C103.006 22.3946 102.887 21.015 103.083 19.6626C103.313 18.3143 103.909 17.0557 104.806 16.0258C105.703 14.9958 106.867 14.2344 108.168 13.8254C110.837 13.0818 114.129 13.9054 116.137 11.9623C117.579 10.555 117.667 8.26011 118.783 6.58091C120.512 3.97416 124.17 3.55836 127.262 3.98216C130.354 4.40596 133.494 5.40547 136.522 4.64583C139.049 4.01413 141.121 2.24698 143.496 1.1595C146.084 -0.027628 148.977 -0.373437 151.771 0.170427C154.565 0.71429 157.12 2.12064 159.078 4.1928C161.036 6.26497 162.299 8.89934 162.692 11.7275C163.085 14.5557 162.586 17.4363 161.267 19.9665C160.388 21.8181 158.891 23.303 157.036 24.1645" fill="#263238"/>
<path d="M129.406 104.854C131.438 104.85 133.449 104.441 135.323 103.651C137.197 102.862 138.895 101.707 140.321 100.253C141.746 98.7999 142.87 97.0771 143.627 95.1847C144.384 93.2924 144.759 91.2681 144.731 89.2292L144.532 74.5323C144.532 74.5323 156.836 73.2929 157.649 61.0587C158.462 48.8246 157.88 20.5902 157.88 20.5902C151.11 17.2201 143.566 15.7228 136.027 16.2527C128.487 16.7826 121.225 19.3205 114.989 23.6047L113.109 24.9081L114.025 89.629C114.073 93.6879 115.716 97.5636 118.596 100.414C121.476 103.265 125.36 104.86 129.406 104.854Z" fill="#FFBE9D"/>
<path d="M154.661 42.7955C154.216 42.7441 153.805 42.5303 153.507 42.1949C153.209 41.8594 153.044 41.4257 153.044 40.9763C153.044 40.5269 153.209 40.0932 153.507 39.7577C153.805 39.4223 154.216 39.2085 154.661 39.1572C154.757 39.1331 154.859 39.1331 154.955 39.1572C155.4 39.2085 155.811 39.4223 156.109 39.7577C156.407 40.0932 156.572 40.5269 156.572 40.9763C156.572 41.4257 156.407 41.8594 156.109 42.1949C155.811 42.5303 155.4 42.7441 154.955 42.7955C154.858 42.8114 154.758 42.8114 154.661 42.7955Z" fill="#263238"/>
<path d="M157.051 38.8455C156.852 39.0534 155.705 38.0459 154.023 37.9579C152.342 37.87 151.074 38.6616 150.907 38.4377C150.74 38.2138 151.027 37.9659 151.584 37.5901C152.33 37.1102 153.209 36.883 154.093 36.942C154.977 37.001 155.818 37.3431 156.494 37.9179C156.996 38.3657 157.155 38.7975 157.051 38.8455Z" fill="#263238"/>
<path d="M137.614 39.2612C137.903 39.462 138.127 39.7444 138.256 40.0726C138.385 40.4008 138.414 40.7601 138.339 41.1049C138.265 41.4498 138.09 41.7647 137.837 42.0098C137.584 42.2549 137.265 42.4193 136.919 42.482C136.572 42.5447 136.216 42.503 135.893 42.3622C135.571 42.2213 135.297 41.9877 135.107 41.6908C134.917 41.3939 134.819 41.0471 134.826 40.6943C134.832 40.3415 134.943 39.9986 135.144 39.709C135.412 39.3213 135.824 39.0564 136.287 38.9725C136.75 38.8886 137.227 38.9924 137.614 39.2612Z" fill="#263238"/>
<path d="M138.722 39.3333C138.515 39.5412 137.367 38.5337 135.694 38.4457C134.02 38.3578 132.745 39.1494 132.57 38.9255C132.482 38.8216 132.697 38.4537 133.247 38.0779C133.993 37.598 134.872 37.3708 135.756 37.4298C136.639 37.4888 137.481 37.8309 138.156 38.4057C138.658 38.8535 138.818 39.2453 138.722 39.3333Z" fill="#263238"/>
<path d="M144.731 53.6143C144.731 53.4863 145.775 53.3264 147.48 53.1825C147.919 53.1825 148.277 53.0785 148.317 52.8466C148.349 52.4058 148.264 51.9642 148.07 51.5673C147.696 50.4238 147.321 49.2723 146.923 48.0649C145.329 43.0833 144.285 38.9813 144.532 38.9013C144.779 38.8214 146.261 42.7955 147.831 47.7771C148.198 48.9925 148.556 50.1759 148.899 51.2954C149.152 51.8775 149.202 52.5281 149.042 53.1425C148.971 53.3084 148.862 53.4551 148.723 53.5704C148.585 53.6858 148.421 53.7666 148.245 53.8062C147.997 53.8618 147.742 53.8807 147.488 53.8621C145.767 53.8302 144.731 53.7502 144.731 53.6143Z" fill="#263238"/>
<path d="M139.152 55.1816C141.714 56.501 144.443 57.4615 147.265 58.0363C146.646 58.8889 145.758 59.5063 144.745 59.788C143.732 60.0697 142.654 59.999 141.686 59.5875C138.092 58.0443 139.152 55.1816 139.152 55.1816Z" fill="white"/>
<path d="M144.579 74.3563C138.938 74.1545 133.484 72.2728 128.912 68.9509C128.912 68.9509 132.195 77.9626 144.428 77.5308L144.579 74.3563Z" fill="#EB996E"/>
<path d="M157.984 23.6846C157.984 23.6846 150.612 27.4428 140.85 22.789C134.474 19.7345 127.007 18.3192 125.397 19.6385C123.788 20.9579 123.572 27.5147 117.324 29.5538C117.324 29.5538 118.002 42.0758 113.013 41.7239C108.024 41.3721 110.766 21.9174 110.766 21.9174L122.823 15.7124L136.06 12.9377L148.612 14.465L158.351 16.9358L157.984 23.6846Z" fill="#263238"/>
<path d="M113.922 37.702C113.722 37.598 105.673 34.7514 105.49 43.1393C105.307 51.5273 113.73 49.9841 113.746 49.7442C113.762 49.5043 113.922 37.702 113.922 37.702Z" fill="#FFBE9D"/>
<path d="M111.26 46.5057C111.26 46.5057 111.108 46.6096 110.861 46.7135C110.511 46.8562 110.119 46.8562 109.769 46.7135C108.893 46.3697 108.176 44.9464 108.176 43.4351C108.175 42.7147 108.329 42.0026 108.63 41.3481C108.716 41.0884 108.863 40.8532 109.058 40.6625C109.254 40.4718 109.492 40.3313 109.753 40.2527C109.922 40.2219 110.096 40.2465 110.25 40.3228C110.403 40.3992 110.528 40.5232 110.606 40.6765C110.71 40.9083 110.654 41.0763 110.694 41.0922C110.734 41.1082 110.877 40.9563 110.821 40.6125C110.778 40.4033 110.665 40.2147 110.503 40.0767C110.277 39.8988 109.991 39.8156 109.706 39.8448C109.361 39.9046 109.037 40.0521 108.764 40.2733C108.492 40.4945 108.281 40.7819 108.152 41.1082C107.784 41.8282 107.592 42.626 107.594 43.4351C107.594 45.1223 108.439 46.7295 109.634 47.1054C109.857 47.1738 110.093 47.1921 110.325 47.159C110.556 47.1258 110.777 47.042 110.973 46.9135C111.26 46.7135 111.26 46.5216 111.26 46.5057Z" fill="#EB996E"/>
<path d="M109.666 11.4505C110.619 11.1698 111.638 11.2066 112.569 11.5555C113.5 11.9043 114.293 12.5464 114.83 13.3855C114.087 12.8209 113.285 12.3383 112.439 11.9462C111.534 11.6847 110.605 11.5186 109.666 11.4505Z" fill="#263238"/>
<path d="M114.694 6.42896C114.846 6.42896 114.615 8.19611 114.902 10.2911C115.15 11.5506 115.543 12.7769 116.073 13.9453C116.073 13.9453 115.723 13.6495 115.372 13.0258C114.922 12.1957 114.625 11.291 114.495 10.3551C114.263 9.04819 114.331 7.70541 114.694 6.42896Z" fill="#263238"/>
<path d="M149.034 34.7993C148.986 34.7034 149.345 34.4075 150.022 34.1356C151.821 33.4379 153.817 33.4579 155.601 34.1916C156.27 34.4795 156.629 34.7753 156.581 34.8713C156.478 35.0952 154.868 34.4635 152.804 34.4635C150.74 34.4635 149.13 35.0472 149.034 34.7993Z" fill="#263238"/>
<path d="M130.386 33.0563C130.338 32.9604 130.697 32.6725 131.374 32.3926C132.266 32.0468 133.216 31.8758 134.172 31.8889C135.132 31.8887 136.082 32.0789 136.969 32.4486C137.638 32.7365 137.989 33.0323 137.949 33.1363C137.909 33.2402 136.236 32.7285 134.164 32.7205C132.092 32.7125 130.498 33.2802 130.386 33.0563Z" fill="#263238"/>
<path d="M147.592 36.1428C147.61 36.3076 147.61 36.4738 147.592 36.6386C147.592 36.9904 147.592 37.4382 147.632 37.99C147.672 38.5417 147.632 39.2853 147.68 40.0849C147.649 41.0078 147.784 41.9285 148.078 42.8036C148.462 43.9388 149.127 44.9575 150.011 45.7645C150.895 46.5714 151.968 47.1401 153.131 47.4174C153.798 47.5809 154.486 47.6403 155.171 47.5933C155.883 47.5612 156.586 47.4127 157.251 47.1536C158.668 46.6206 159.876 45.6416 160.693 44.3629C161.467 43.1418 161.856 41.715 161.809 40.2689C161.809 38.8375 161.809 37.4622 161.809 36.1428L162 36.3347L151.64 36.2388L148.636 36.1828H147.839H147.544C147.885 36.1448 148.229 36.1287 148.572 36.1348L151.529 36.0789L162 35.9829H162.263V36.1828C162.263 37.5022 162.263 38.8775 162.263 40.3088C162.317 41.8339 161.908 43.3394 161.092 44.6268C160.225 45.9806 158.945 47.0159 157.442 47.5773C156.736 47.8495 155.99 48.0035 155.234 48.0331C154.514 48.0761 153.791 48.0087 153.091 47.8332C151.872 47.5376 150.749 46.9321 149.83 46.0751C148.912 45.218 148.229 44.1382 147.847 42.9396C147.561 42.025 147.442 41.066 147.496 40.1089C147.496 39.3093 147.496 38.5657 147.536 37.958C147.576 37.3503 147.536 36.9744 147.576 36.6226C147.568 36.4625 147.574 36.3021 147.592 36.1428Z" fill="#263238"/>
<path d="M128.059 35.7269C128.059 35.7269 128.059 35.9109 128.059 36.2227V37.5741C128.059 38.1658 128.059 38.8694 128.099 39.6771C128.078 40.5993 128.213 41.5185 128.497 42.3957C128.865 43.4486 129.467 44.4032 130.259 45.1864C131.173 46.0778 132.31 46.705 133.55 47.0015C134.921 47.333 136.36 47.241 137.678 46.7377C139.092 46.2053 140.296 45.2294 141.113 43.955C141.889 42.7348 142.281 41.308 142.236 39.861C142.236 38.4296 142.236 37.0463 142.236 35.7269L142.428 35.9188L132.068 35.8229L129.071 35.7749H128.274H127.979C128.318 35.7371 128.659 35.721 128.999 35.7269L131.956 35.679L142.428 35.583H142.619V35.7749C142.619 37.0943 142.619 38.4776 142.619 39.9089C142.667 41.4344 142.256 42.9391 141.44 44.2269C140.573 45.576 139.296 46.6081 137.798 47.1695C137.091 47.4409 136.346 47.5948 135.59 47.6252C134.867 47.668 134.141 47.6006 133.438 47.4253C132.136 47.1036 130.946 46.4318 129.996 45.4823C129.174 44.6536 128.557 43.643 128.195 42.5317C127.908 41.6171 127.79 40.6581 127.844 39.701C127.844 38.9014 127.844 38.1578 127.892 37.5501C127.94 36.9424 127.892 36.5665 127.892 36.2147C127.921 36.0441 127.977 35.8794 128.059 35.7269Z" fill="#263238"/>
<path d="M147.767 36.7264C145.945 37.0038 144.091 37.0038 142.268 36.7264C144.09 36.4385 145.945 36.4385 147.767 36.7264Z" fill="#263238"/>
<path d="M112.854 36.8304C115.387 36.6184 117.93 36.541 120.472 36.5985C123.016 36.5261 125.562 36.5875 128.099 36.7824C125.566 37.0042 123.022 37.0817 120.48 37.0143C117.937 37.0958 115.39 37.0344 112.854 36.8304Z" fill="#263238"/>
<path d="M265.936 46.7937L242.212 38.2378L218.718 46.6737C215.722 48.0971 213.092 48.9446 213.092 51.7513V65.7046C213.046 75.5061 215.725 85.1262 220.83 93.4833C225.909 101.947 233.452 108.645 242.443 112.674C252.046 109.54 259.218 101.2 263.601 94.067C268.701 85.708 271.381 76.0892 271.339 66.2883V53.7343C271.339 49.6803 269.228 47.7292 265.936 46.7937Z" fill="#042B2E"/>
<g opacity="0.3">
<path d="M242.443 104.518C235.323 101.293 229.356 95.9611 225.341 89.2374C221.305 82.6258 219.186 75.0168 219.22 67.2639V57.4686C219.22 55.2537 220.551 53.1747 223.205 51.9353L242.22 44.8027V38.2139L218.726 46.6498C216.264 47.7293 213.1 48.9207 213.1 51.7274V65.6807C213.054 75.4822 215.733 85.1023 220.838 93.4593C225.917 101.923 233.46 108.621 242.451 112.65L242.443 104.518Z" fill="black"/>
</g>
<g opacity="0.4">
<path d="M242.443 112.618C244.052 112.088 245.613 111.416 247.105 110.611C250.763 108.528 254.089 105.905 256.971 102.831C259.583 100.006 261.881 96.9035 263.824 93.5792C268.999 85.1629 271.611 75.4136 271.339 65.5286V53.9902C271.339 48.2569 268.399 47.8331 265.928 46.7536L242.204 38.1978V44.7866L261.442 52.0311C264.087 53.2705 265.426 55.3495 265.426 57.5725V67.3598C265.461 75.1151 263.341 82.7267 259.306 89.3412C255.381 96.0324 249.487 101.34 242.435 104.534L242.443 112.618Z" fill="black"/>
</g>
<path opacity="0.5" d="M248.507 66.6322V64.7451C248.45 63.1453 247.776 61.6303 246.628 60.5189C245.48 59.4074 243.946 58.7864 242.351 58.7864C240.755 58.7864 239.222 59.4074 238.074 60.5189C236.926 61.6303 236.252 63.1453 236.195 64.7451V66.6642C235.377 66.7868 234.631 67.1996 234.091 67.8277C233.551 68.4558 233.254 69.2573 233.254 70.0866V81.1772C233.254 82.0955 233.617 82.9762 234.265 83.6255C234.912 84.2748 235.789 84.6396 236.705 84.6396H248.196C249.112 84.6396 249.989 84.2748 250.636 83.6255C251.284 82.9762 251.647 82.0955 251.647 81.1772V70.0786C251.647 69.2146 251.324 68.3821 250.743 67.7444C250.162 67.1067 249.365 66.71 248.507 66.6322ZM244.02 78.4186H241.008L241.478 76.2436C241.208 76.0757 240.986 75.8403 240.834 75.5602C240.681 75.2802 240.604 74.9653 240.61 74.6464C240.616 74.3275 240.704 74.0156 240.867 73.7413C241.029 73.467 241.259 73.2398 241.535 73.0819C241.812 72.924 242.124 72.8408 242.442 72.8407C242.76 72.8405 243.072 72.9233 243.349 73.0809C243.625 73.2385 243.856 73.4654 244.018 73.7396C244.181 74.0137 244.269 74.3255 244.275 74.6444C244.279 74.9452 244.207 75.242 244.068 75.5085C243.929 75.775 243.727 76.0028 243.479 76.1716L244.02 78.4186ZM247.208 66.6162H237.517V64.7451C237.568 63.493 238.1 62.309 239 61.4411C239.901 60.5731 241.102 60.0884 242.351 60.0884C243.6 60.0884 244.8 60.5731 245.701 61.4411C246.602 62.309 247.134 63.493 247.184 64.7451L247.208 66.6162Z" fill="white"/>
<path d="M223.061 66.4961C222.863 65.8685 222.746 65.2183 222.711 64.561C222.533 62.9898 222.469 61.4078 222.519 59.8273C222.519 58.8997 222.607 58.0122 222.687 57.2205C222.725 56.4886 222.907 55.7714 223.221 55.1096C223.448 54.6598 223.81 54.2933 224.257 54.0621C224.576 53.9101 224.783 53.9181 224.783 53.9421C224.208 54.2089 223.745 54.6704 223.476 55.2455C223.226 55.886 223.088 56.565 223.069 57.2525C223.006 58.0522 222.958 58.9157 222.934 59.8353C222.878 61.6744 222.934 63.3376 222.998 64.537C223.075 65.187 223.096 65.8425 223.061 66.4961Z" fill="white"/>
<path d="M223.412 72.5734C223.3 72.5734 223.197 72.0056 223.181 71.294C223.165 70.5823 223.244 70.0066 223.364 70.0066C223.484 70.0066 223.579 70.5743 223.595 71.286C223.611 71.9976 223.531 72.5734 223.412 72.5734Z" fill="white"/>
<path d="M198.38 130.13L171.93 195.77H124.226V198.737H266.303L295.367 130.13H198.38Z" fill="#263238"/>
<path d="M238.817 168.887C237.86 172.189 235.071 174.276 232.585 173.557C230.098 172.837 228.863 169.559 229.819 166.256C230.776 162.954 233.573 160.867 236.059 161.587C238.546 162.306 239.781 165.585 238.817 168.887Z" fill="#FAFAFA"/>
</g>
<defs>
<clipPath id="clip0_7_1724">
<rect width="345" height="200" fill="white"/>
</clipPath>
</defs>
</svg>
