<svg width="278" height="265" viewBox="0 0 278 265" fill="none" xmlns="http://www.w3.org/2000/svg">
<g clip-path="url(#clip0_8_1799)">
<path d="M138.937 264.031C215.67 264.031 277.874 229.588 277.874 187.102C277.874 144.615 215.67 110.173 138.937 110.173C62.2042 110.173 0 144.615 0 187.102C0 229.588 62.2042 264.031 138.937 264.031Z" fill="#F5F5F5"/>
<path d="M173.44 184.668L138.937 164.753L104.434 184.668L138.937 204.589L173.44 184.668Z" fill="#E6E6E6"/>
<path d="M188.239 69.3078C199.619 59.0659 211.846 46.2212 212.016 38.5459C206.732 38.4248 205.521 38.5459 202.065 41.1669C198.99 43.5034 186.369 59.4775 182.089 62.2438C176.424 63.6663 166.23 65.3249 161.321 65.4156C160.452 65.4249 159.61 65.1147 158.954 64.544C157.181 63.0186 155.801 63.067 153.87 62.1228C152.357 61.3722 151.769 60.5126 151.449 60.779C151.128 61.0453 150.51 62.153 151.352 63.3818C151.904 64.1017 152.554 64.7413 153.283 65.2825C151.456 65.0743 149.667 64.6118 147.968 63.9084C143.894 62.2741 141.866 62.7825 143.495 68.1456C144.512 71.499 147.411 73.5268 155.601 73.7387C158.611 73.8765 161.627 73.7976 164.626 73.5026C170.619 72.7217 177.507 72.6007 182.398 71.9833C184.571 71.7033 186.608 70.7703 188.239 69.3078Z" fill="#FFB3B2"/>
<path d="M212.585 38.2132C208.675 37.4929 204.002 38.5159 200.885 41.5364C197.767 44.5569 191.012 52.432 191.012 52.432C191.012 52.432 194.262 58.5275 199.153 59.732L203.996 54.4477L212.585 38.2132Z" fill="#27DEBF"/>
<path opacity="0.1" d="M212.585 38.2132C208.675 37.4929 204.002 38.5159 200.885 41.5364C197.767 44.5569 191.012 52.432 191.012 52.432C191.012 52.432 194.262 58.5275 199.153 59.732L203.996 54.4477L212.585 38.2132Z" fill="black"/>
<path d="M234.358 183.136H227.415V193.245H234.358V183.136Z" fill="#FFB3B2"/>
<path d="M209.942 170.62L203.003 170.859L203.351 180.962L210.29 180.723L209.942 170.62Z" fill="#FFB3B2"/>
<path d="M233.904 84.4407C233.904 91.0991 234.764 133.955 234.764 133.955C234.927 135.868 236.713 139.403 236.326 146.709C235.799 156.66 234.939 184.311 234.939 184.311C234.939 184.311 231.683 187.537 227.07 184.311C227.07 184.311 220.787 146.745 219.54 136.879C218.457 128.271 216.611 104.888 216.611 104.888L213.076 132.956C213.076 132.956 214.207 139.427 214.462 143.997C214.716 148.567 210.382 174.396 210.382 174.396C209.258 175.1 207.969 175.498 206.644 175.549C205.318 175.6 204.002 175.302 202.828 174.686C202.828 174.686 200.164 136.709 199.468 132.563C198.772 128.417 201.454 84.4407 201.454 84.4407H233.904Z" fill="#37474F"/>
<path d="M223.457 38.5279C223.977 38.655 226.961 39.3572 229.8 40.1078C230.977 40.4181 232.019 41.1098 232.761 42.0746C233.504 43.0395 233.906 44.2231 233.904 45.4405V84.4407C229.062 89.7372 212.065 92.2069 201.435 84.4407V50.5978C201.435 45.1924 204.462 38.6974 212.736 38.2131L223.457 38.5279Z" fill="#EBEBEB"/>
<path d="M225.793 10.8531C226.352 10.7874 226.918 10.8504 227.449 11.0371C227.98 11.2239 228.461 11.5295 228.856 11.9306C230.169 13.2744 229.897 15.7622 228.856 21.4824L224.794 21.9485L225.793 10.8531Z" fill="#263238"/>
<path d="M202.101 9.20066C201.227 9.20435 200.361 9.02712 199.559 8.68009C198.312 7.96583 197.985 9.38225 198.669 10.6171C199.122 11.4985 199.794 12.2493 200.619 12.7981C201.444 13.3469 202.396 13.6755 203.384 13.7526C203.421 13.5771 204.553 10.5808 204.553 10.5808L202.101 9.20066Z" fill="#263238"/>
<path d="M208.433 23.1652C212.815 23.1652 216.368 19.6123 216.368 15.2296C216.368 10.8468 212.815 7.29395 208.433 7.29395C204.05 7.29395 200.497 10.8468 200.497 15.2296C200.497 19.6123 204.05 23.1652 208.433 23.1652Z" fill="#263238"/>
<path d="M223.886 21.9483C224.492 22.3115 225.351 21.1493 226.096 20.3745C226.84 19.5997 229.267 18.5585 230.478 21.0827C231.689 23.6068 229.407 27.1358 227.494 27.7411C224.201 28.7762 223.705 26.6636 223.705 26.6636L223.456 38.5459C223.456 38.5459 221.295 43.8242 215.454 44.599C209.613 45.3738 210.818 40.5737 212.736 38.213V34.5811C212.736 34.5811 209.752 35.0351 208.299 34.8051C205.878 34.4298 204.347 32.5231 203.614 29.896C202.434 25.6588 201.986 22.2812 203.009 14.0005C204.111 4.92088 214.673 4.82403 220.375 8.41352C226.077 12.003 223.886 21.9483 223.886 21.9483Z" fill="#FFB3B2"/>
<path d="M223.584 23.6312C223.868 23.5223 225.345 21.0587 226.096 20.3747C227.137 19.4243 225.793 10.8531 225.793 10.8531C225.793 10.8531 226.846 7.60259 224.788 5.44769C222.73 3.29278 218.735 3.63175 215.836 3.54701C212.809 3.43805 209.553 3.25646 205.418 1.45869C201.284 -0.339085 200.969 -0.550944 200.455 1.26499C199.94 3.08092 199.747 7.24546 202.216 10.0359L204.274 10.7865C204.274 10.7865 205.382 11.7732 209.244 12.2453C212.145 12.5615 215.071 12.5615 217.972 12.2453C219.092 12.094 220.285 12.8506 220.66 16.4099C220.938 18.9885 221.865 24.2789 223.584 23.6312Z" fill="#263238"/>
<path d="M225.787 11.5191L229.419 9.56396C229.302 9.31751 229.137 9.09728 228.933 8.91666C228.729 8.73605 228.49 8.59883 228.232 8.51333C227.973 8.42784 227.699 8.39586 227.428 8.41934C227.156 8.44283 226.893 8.52128 226.652 8.64994C226.167 8.92565 225.807 9.37733 225.646 9.91144C225.485 10.4456 225.535 11.0212 225.787 11.5191Z" fill="#263238"/>
<path d="M212.743 34.5994C212.743 34.5994 218.154 33.5099 220.043 32.505C221.155 31.9243 222.067 31.0214 222.658 29.9143C222.371 31.0123 221.867 32.0415 221.175 32.9409C219.788 34.7084 212.743 36.0098 212.743 36.0098V34.5994Z" fill="#F59595"/>
<path d="M212.743 20.5987C212.751 20.8125 212.822 21.0191 212.947 21.1927C213.072 21.3663 213.245 21.4994 213.445 21.5752C213.645 21.651 213.863 21.6663 214.072 21.6191C214.281 21.5719 214.471 21.4643 214.619 21.3098C214.766 21.1552 214.866 20.9606 214.904 20.7501C214.942 20.5396 214.917 20.3225 214.832 20.126C214.748 19.9295 214.608 19.7622 214.429 19.645C214.25 19.5277 214.04 19.4658 213.826 19.4668C213.533 19.4763 213.256 19.6001 213.054 19.8117C212.851 20.0233 212.739 20.3058 212.743 20.5987Z" fill="#263238"/>
<path d="M213.771 23.4316C213.771 23.4717 213.787 23.5102 213.816 23.5386C213.844 23.567 213.883 23.5829 213.923 23.5829C213.963 23.5829 214.001 23.567 214.03 23.5386C214.058 23.5102 214.074 23.4717 214.074 23.4316C214.074 23.3915 214.058 23.353 214.03 23.3246C214.001 23.2962 213.963 23.2803 213.923 23.2803C213.883 23.2803 213.844 23.2962 213.816 23.3246C213.787 23.353 213.771 23.3915 213.771 23.4316Z" fill="#F59595"/>
<path d="M214.988 22.7416C214.987 22.7619 214.991 22.7823 214.998 22.8013C215.005 22.8204 215.016 22.8378 215.03 22.8525C215.044 22.8672 215.061 22.8789 215.08 22.8869C215.099 22.8949 215.119 22.899 215.139 22.8989C215.181 22.8989 215.221 22.8824 215.251 22.8528C215.28 22.8233 215.297 22.7833 215.297 22.7416C215.301 22.7187 215.301 22.6952 215.295 22.6726C215.289 22.65 215.279 22.629 215.264 22.611C215.249 22.593 215.231 22.5785 215.21 22.5686C215.189 22.5586 215.166 22.5535 215.142 22.5535C215.119 22.5535 215.096 22.5586 215.075 22.5686C215.054 22.5785 215.036 22.593 215.021 22.611C215.006 22.629 214.995 22.65 214.99 22.6726C214.984 22.6952 214.984 22.7187 214.988 22.7416Z" fill="#F59595"/>
<path d="M215.605 23.9518C215.604 23.9724 215.606 23.9931 215.613 24.0126C215.62 24.0321 215.631 24.0499 215.646 24.0648C215.66 24.0797 215.677 24.0913 215.696 24.099C215.716 24.1066 215.736 24.1101 215.757 24.1092C215.799 24.1092 215.839 24.0926 215.868 24.0631C215.898 24.0336 215.914 23.9936 215.914 23.9518C215.914 23.9101 215.898 23.87 215.868 23.8405C215.839 23.811 215.799 23.7944 215.757 23.7944C215.716 23.796 215.678 23.8133 215.649 23.8426C215.621 23.872 215.605 23.9111 215.605 23.9518Z" fill="#F59595"/>
<path d="M216.616 22.9108C216.616 22.9531 216.633 22.9938 216.662 23.0243C216.692 23.0548 216.732 23.0727 216.774 23.0742C216.795 23.0735 216.815 23.0686 216.834 23.06C216.852 23.0513 216.869 23.0391 216.883 23.0239C216.897 23.0087 216.908 22.9909 216.916 22.9715C216.923 22.9521 216.926 22.9315 216.925 22.9108C216.925 22.8701 216.909 22.831 216.881 22.8016C216.853 22.7723 216.815 22.755 216.774 22.7534C216.732 22.7534 216.692 22.77 216.663 22.7995C216.633 22.829 216.616 22.8691 216.616 22.9108Z" fill="#F59595"/>
<path d="M212.059 22.5839C212.059 22.6241 212.075 22.6626 212.103 22.691C212.131 22.7193 212.17 22.7353 212.21 22.7353C212.25 22.7353 212.289 22.7193 212.317 22.691C212.345 22.6626 212.361 22.6241 212.361 22.5839C212.361 22.5438 212.345 22.5053 212.317 22.4769C212.289 22.4486 212.25 22.4326 212.21 22.4326C212.17 22.4326 212.131 22.4486 212.103 22.4769C212.075 22.5053 212.059 22.5438 212.059 22.5839Z" fill="#F59595"/>
<path d="M212.416 23.9521C212.414 23.9727 212.417 23.9934 212.424 24.0129C212.431 24.0324 212.442 24.0502 212.456 24.0651C212.47 24.08 212.487 24.0916 212.507 24.0993C212.526 24.1069 212.546 24.1104 212.567 24.1095C212.588 24.1095 212.608 24.1054 212.626 24.0974C212.645 24.0894 212.662 24.0777 212.676 24.063C212.69 24.0483 212.701 24.0309 212.709 24.0119C212.716 23.9928 212.719 23.9725 212.718 23.9521C212.718 23.912 212.703 23.8735 212.674 23.8451C212.646 23.8167 212.607 23.8008 212.567 23.8008C212.527 23.8008 212.488 23.8167 212.46 23.8451C212.432 23.8735 212.416 23.912 212.416 23.9521Z" fill="#F59595"/>
<path d="M210.733 23.0622C210.733 23.1024 210.749 23.1408 210.777 23.1692C210.806 23.1976 210.844 23.2135 210.884 23.2135C210.924 23.2135 210.963 23.1976 210.991 23.1692C211.02 23.1408 211.036 23.1024 211.036 23.0622C211.036 23.0221 211.02 22.9836 210.991 22.9552C210.963 22.9268 210.924 22.9109 210.884 22.9109C210.844 22.9109 210.806 22.9268 210.777 22.9552C210.749 22.9836 210.733 23.0221 210.733 23.0622Z" fill="#F59595"/>
<path d="M206.011 22.5235C206.011 22.5643 206.027 22.6034 206.055 22.6327C206.083 22.6621 206.122 22.6794 206.163 22.6809C206.183 22.6801 206.204 22.6753 206.222 22.6667C206.241 22.658 206.258 22.6458 206.272 22.6306C206.286 22.6154 206.297 22.5976 206.304 22.5782C206.312 22.5588 206.315 22.5382 206.314 22.5175C206.314 22.4768 206.298 22.4376 206.27 22.4083C206.242 22.3789 206.203 22.3617 206.163 22.3601C206.142 22.3609 206.122 22.3657 206.103 22.3744C206.084 22.383 206.067 22.3953 206.053 22.4105C206.039 22.4256 206.028 22.4434 206.021 22.4628C206.014 22.4822 206.011 22.5029 206.011 22.5235Z" fill="#F59595"/>
<path d="M204.946 23.268C204.945 23.2884 204.949 23.3087 204.956 23.3278C204.963 23.3469 204.974 23.3643 204.988 23.379C205.002 23.3937 205.019 23.4054 205.038 23.4133C205.057 23.4213 205.077 23.4254 205.097 23.4254C205.138 23.4238 205.177 23.4066 205.205 23.3772C205.233 23.3479 205.249 23.3087 205.249 23.268C205.249 23.2279 205.233 23.1894 205.205 23.161C205.176 23.1326 205.138 23.1167 205.097 23.1167C205.057 23.1167 205.019 23.1326 204.991 23.161C204.962 23.1894 204.946 23.2279 204.946 23.268Z" fill="#F59595"/>
<path d="M204.111 22.4689C204.11 22.4896 204.113 22.5102 204.12 22.5296C204.128 22.549 204.138 22.5668 204.152 22.582C204.167 22.5972 204.183 22.6094 204.202 22.6181C204.221 22.6267 204.241 22.6316 204.262 22.6323C204.299 22.6251 204.333 22.6051 204.357 22.5758C204.381 22.5466 204.394 22.5098 204.394 22.4719C204.394 22.434 204.381 22.3973 204.357 22.368C204.333 22.3388 204.299 22.3188 204.262 22.3115C204.221 22.3131 204.183 22.3304 204.155 22.3597C204.126 22.3891 204.111 22.4282 204.111 22.4689Z" fill="#F59595"/>
<path d="M203.1 22.8383C203.095 22.8611 203.096 22.8847 203.102 22.9072C203.107 22.9298 203.118 22.9509 203.133 22.9688C203.147 22.9868 203.166 23.0013 203.187 23.0113C203.208 23.0212 203.231 23.0264 203.254 23.0264C203.278 23.0264 203.301 23.0212 203.322 23.0113C203.343 23.0013 203.361 22.9868 203.376 22.9688C203.391 22.9509 203.401 22.9298 203.407 22.9072C203.413 22.8847 203.413 22.8611 203.409 22.8383C203.409 22.7976 203.393 22.7584 203.365 22.7291C203.337 22.6997 203.298 22.6825 203.257 22.6809C203.216 22.6809 203.176 22.6975 203.146 22.727C203.117 22.7565 203.1 22.7965 203.1 22.8383Z" fill="#F59595"/>
<path d="M202.931 21.6518C202.93 21.6724 202.933 21.6931 202.94 21.7125C202.947 21.7319 202.958 21.7497 202.972 21.7649C202.986 21.78 203.003 21.7923 203.022 21.8009C203.041 21.8096 203.061 21.8144 203.082 21.8152C203.119 21.8079 203.153 21.788 203.177 21.7587C203.201 21.7294 203.214 21.6927 203.214 21.6548C203.214 21.6169 203.201 21.5801 203.177 21.5509C203.153 21.5216 203.119 21.5016 203.082 21.4944C203.041 21.496 203.003 21.5132 202.974 21.5426C202.946 21.5719 202.931 21.6111 202.931 21.6518Z" fill="#F59595"/>
<path d="M213.893 16.5068L216.211 17.784C216.368 17.4695 216.4 17.1069 216.3 16.7697C216.2 16.4325 215.976 16.1459 215.672 15.9681C215.521 15.884 215.354 15.8311 215.181 15.8127C215.009 15.7943 214.834 15.8107 214.668 15.861C214.502 15.9112 214.348 15.9943 214.215 16.1052C214.082 16.2161 213.972 16.3527 213.893 16.5068Z" fill="#263238"/>
<path d="M213.233 28.0864L210.757 29.0126C210.812 29.1785 210.899 29.3318 211.013 29.4634C211.128 29.5951 211.268 29.7025 211.425 29.7792C211.582 29.8559 211.752 29.9005 211.927 29.9102C212.101 29.9199 212.275 29.8946 212.44 29.8358C212.773 29.7043 213.043 29.4482 213.191 29.1217C213.339 28.7952 213.354 28.4239 213.233 28.0864Z" fill="#F59595"/>
<path d="M203.748 17.4087L205.866 15.7804C205.767 15.6413 205.64 15.5235 205.495 15.4338C205.349 15.3441 205.187 15.2842 205.018 15.2577C204.849 15.2312 204.676 15.2387 204.51 15.2796C204.344 15.3204 204.188 15.394 204.05 15.4959C203.764 15.7149 203.573 16.0357 203.517 16.3918C203.46 16.7478 203.543 17.1119 203.748 17.4087Z" fill="#263238"/>
<path d="M204.401 20.2899C204.411 20.5019 204.482 20.7064 204.607 20.8781C204.732 21.0498 204.904 21.1811 205.103 21.2557C205.301 21.3304 205.517 21.345 205.724 21.2979C205.931 21.2508 206.12 21.144 206.266 20.9907C206.413 20.8374 206.512 20.6444 206.55 20.4357C206.588 20.2269 206.564 20.0116 206.48 19.8164C206.397 19.6212 206.258 19.4548 206.081 19.3377C205.904 19.2207 205.697 19.1582 205.485 19.158C205.192 19.1659 204.913 19.2892 204.71 19.5012C204.507 19.7131 204.396 19.9965 204.401 20.2899Z" fill="#263238"/>
<path d="M209.244 19.2607L208.887 25.7799L205.485 24.6177L209.244 19.2607Z" fill="#F59595"/>
<path d="M227.421 189.819V188.827C226.756 189.117 225.212 195.007 222.458 197.519C220.267 199.516 217.282 201.823 216.52 204.05C215.757 206.278 220.678 207.646 222.724 207.283C225.103 206.859 229.225 205.188 230.26 203.651C231.295 202.113 231.774 199.813 232.615 198.675C233.456 197.537 235.393 196.254 235.847 194.952C236.102 194.232 235.805 192.646 235.454 191.321C235.127 190.11 234.782 188.742 234.364 188.857C234.364 189.008 234.364 189.614 234.364 189.614C233.856 190.176 232.464 190.727 230.89 190.788C229.873 190.8 227.409 190.582 227.421 189.819Z" fill="#263238"/>
<path d="M203.281 178.827C202.918 178.827 202.628 179.347 201.829 180.207C200.641 181.406 199.262 182.4 197.749 183.149C195.146 184.45 190.092 186.448 187.804 187.483C186.375 188.124 186.442 189.849 187.919 190.83C189.396 191.811 192.961 192.525 197.246 191.563C199.577 191.042 202.616 188.887 204.51 189.002C206.405 189.117 210.031 189.093 211.453 188.118C212.876 187.144 212.301 185.049 211.901 183.276C211.465 181.321 210.836 178.324 210.188 178.433V179.039C209.353 180.298 205.103 180.818 203.269 179.886L203.281 178.827Z" fill="#263238"/>
<path d="M216.629 104.888C213.033 103.771 209.727 101.879 206.944 99.3435C206.944 99.3435 208.814 102.836 214.359 106.087L214.056 125.178L216.629 104.888Z" fill="#263238"/>
<path d="M89.6404 69.308C78.2545 59.0662 66.003 46.2215 65.8638 38.5461C71.1421 38.4251 72.3588 38.5461 75.809 41.1671C78.884 43.5036 91.5047 59.4778 95.7843 62.2441C101.45 63.6665 111.649 65.3251 116.552 65.4159C117.422 65.4251 118.264 65.1149 118.919 64.5442C120.693 63.0189 122.073 63.0673 124.004 62.123C125.523 61.3724 126.104 60.5129 126.425 60.7792C126.843 61.1182 127.363 62.1533 126.522 63.382C125.969 64.1019 125.32 64.7416 124.591 65.2827C126.418 65.0746 128.207 64.6121 129.906 63.9087C133.979 62.2743 136.007 62.7828 134.385 68.1458C133.368 71.4993 130.463 73.5271 122.279 73.7389C119.269 73.8768 116.252 73.7979 113.254 73.5028C107.261 72.722 100.379 72.6009 95.4877 71.9835C93.3119 71.7069 91.2721 70.7736 89.6404 69.308Z" fill="#9C5456"/>
<path d="M59.3567 3.63184H61.1364C65.1498 3.63184 68.9989 5.22618 71.8368 8.06412C74.6748 10.9021 76.2691 14.7511 76.2691 18.7646V36.6879H57.5045C55.7623 36.6887 54.0371 36.3462 52.4274 35.6801C50.8176 35.0139 49.3548 34.0371 48.1227 32.8055C46.8905 31.5739 45.9131 30.1116 45.2462 28.5022C44.5793 26.8927 44.2361 25.1676 44.2361 23.4255V18.7646C44.2361 14.7511 45.8304 10.9021 48.6684 8.06412C51.5063 5.22618 55.3554 3.63184 59.3689 3.63184H59.3567Z" fill="#263238"/>
<path d="M29.7813 179.353L30.5077 178.603C29.9508 179.771 27.6385 184.898 27.8746 188.82C28.0622 191.938 28.6252 195.878 27.5598 198.118C26.4581 200.455 22.112 197.404 20.8651 195.624C19.376 193.56 18.0383 190.279 18.2864 187.495C18.462 185.54 19.152 183.687 19.3518 182.21C19.5515 180.734 19.0249 178.349 19.6484 177.023C19.9874 176.291 21.3796 175.316 22.6265 174.559C23.7706 173.869 25.0478 173.107 25.2596 173.5L24.7027 174.069C24.6725 174.862 25.3081 176.309 26.4642 177.507C27.2027 178.288 29.2123 179.947 29.7813 179.353Z" fill="#27DEBF"/>
<path opacity="0.1" d="M29.7813 179.353L30.5077 178.603C29.9508 179.771 27.6385 184.898 27.8746 188.82C28.0622 191.938 28.6252 195.878 27.5598 198.118C26.4581 200.455 22.112 197.404 20.8651 195.624C19.376 193.56 18.0383 190.279 18.2864 187.495C18.462 185.54 19.152 183.687 19.3518 182.21C19.5515 180.734 19.0249 178.349 19.6484 177.023C19.9874 176.291 21.3796 175.316 22.6265 174.559C23.7706 173.869 25.0478 173.107 25.2596 173.5L24.7027 174.069C24.6725 174.862 25.3081 176.309 26.4642 177.507C27.2027 178.288 29.2123 179.947 29.7813 179.353Z" fill="black"/>
<path d="M28.0803 191.605C28.0137 190.649 27.929 189.698 27.8745 188.814C27.711 186.072 28.7885 182.761 29.648 180.588C30.1383 179.378 34.7084 172.858 34.7084 172.858L28.3285 167.411L24.6966 174.069L24.5695 174.196V174.239C23.7644 175.57 23.3589 180.812 22.8807 184.039C22.5659 186.199 22.7414 189.486 24.5513 191.805C26.2946 193.99 27.9047 194.347 28.0803 191.605Z" fill="#9C5456"/>
<path d="M68.4362 182.205C68.3373 182.232 68.2495 182.291 68.1855 182.371C68.1214 182.451 68.0842 182.55 68.0791 182.653C67.9944 183.258 67.8975 184.359 67.7159 185.376C67.4678 186.732 67.2196 188.681 67.4617 189.759C67.7038 190.836 70.2401 192.368 71.9471 192.592C73.654 192.816 76.5898 194.408 77.9638 195.618C79.6466 197.095 83.2119 198.282 85.6089 198.312C88.4176 198.342 90.6209 197.707 91.2625 195.649C91.5289 194.795 90.8267 193.754 87.2009 192.095C87.2009 192.095 85.385 191.175 84.3257 190.546C79.0776 187.38 77.2738 185.558 75.706 182.259L68.4362 182.205Z" fill="#27DEBF"/>
<path opacity="0.1" d="M68.4362 182.205C68.3373 182.232 68.2495 182.291 68.1855 182.371C68.1214 182.451 68.0842 182.55 68.0791 182.653C67.9944 183.258 67.8975 184.359 67.7159 185.376C67.4678 186.732 67.2196 188.681 67.4617 189.759C67.7038 190.836 70.2401 192.368 71.9471 192.592C73.654 192.816 76.5898 194.408 77.9638 195.618C79.6466 197.095 83.2119 198.282 85.6089 198.312C88.4176 198.342 90.6209 197.707 91.2625 195.649C91.5289 194.795 90.8267 193.754 87.2009 192.095C87.2009 192.095 85.385 191.175 84.3257 190.546C79.0776 187.38 77.2738 185.558 75.706 182.259L68.4362 182.205Z" fill="black"/>
<path d="M77.7099 184.953C76.8268 183.571 76.3275 181.979 76.2632 180.34L76.1482 175.867H68.4124V182.198V183.167C68.8482 186.242 71.7476 186.605 74.1689 188.306C75.3795 189.154 80.0888 192.773 83.2485 193.36C85.8271 193.833 86.7896 192.816 87.1346 192.089C83.7281 190.082 80.5655 187.687 77.7099 184.953Z" fill="#9C5456"/>
<path d="M43.437 135.584C39.9965 138.636 37.3041 142.438 35.568 146.697C33.1831 152.768 26.3491 170.558 26.3491 170.558C26.3491 170.558 29.3394 175.807 33.407 176.164C33.407 176.164 52.7225 147.756 54.944 141.116C57.1958 137.726 60.0105 121.032 62.0504 109.483L62.123 109.61L65.5975 134.113C64.6985 136.987 64.0485 139.934 63.6544 142.92C63.0491 148.931 68.1398 178.028 68.1398 178.028C68.1398 178.028 71.5961 179.844 76.3781 178.24C76.3781 178.24 77.1468 140.299 77.6916 133.053C78.5996 120.893 79.0414 86.5958 76.8139 79.3987L44.9443 81.1783C42.2991 88.8173 42.0933 93.6961 42.4322 102.074C42.747 110.73 43.437 135.584 43.437 135.584Z" fill="#37474F"/>
<path d="M62.1047 109.61L63.9207 98.2963C63.9207 98.2963 71.5779 96.7044 75.0523 93.4539C75.0523 93.4539 71.4205 97.9876 65.9727 99.4706L63.9388 108.181L65.325 132.23L62.1047 109.61Z" fill="#263238"/>
<path d="M54.7504 38.873C47.6016 39.3633 45.3559 42.293 45.3075 46.5967C45.3367 50.034 45.915 53.4446 47.0205 56.6994L50.265 67.7039C50.265 67.7039 47.5774 73.8055 44.9141 81.2145C57.4198 88.1937 73.0307 84.5255 76.7958 79.4348C76.9532 78.3513 75.9847 69.9072 75.3915 64.3868C77.5948 58.8664 78.1759 55.3616 77.2437 51.7116C75.5186 44.9321 68.8238 38.3282 65.8639 38.5643L54.7504 38.873Z" fill="#27DEBF"/>
<path opacity="0.1" d="M54.7504 38.873C47.6016 39.3633 45.3559 42.293 45.3075 46.5967C45.3367 50.034 45.915 53.4446 47.0205 56.6994L50.265 67.7039C50.265 67.7039 47.5774 73.8055 44.9141 81.2145C57.4198 88.1937 73.0307 84.5255 76.7958 79.4348C76.9532 78.3513 75.9847 69.9072 75.3915 64.3868C77.5948 58.8664 78.1759 55.3616 77.2437 51.7116C75.5186 44.9321 68.8238 38.3282 65.8639 38.5643L54.7504 38.873Z" fill="black"/>
<path d="M70.6216 83.3571L59.5989 71.4749L45.5315 50.1074C45.8025 52.3496 46.3015 54.5583 47.0205 56.6993L50.265 67.7038C50.265 67.7038 47.5774 73.8053 44.9141 81.2144C53.6729 86.0871 63.9571 85.7481 70.6216 83.3571Z" fill="#27DEBF"/>
<path opacity="0.1" d="M70.6216 83.3571L59.5989 71.4749L45.5315 50.1074C45.8025 52.3496 46.3015 54.5583 47.0205 56.6993L50.265 67.7038C50.265 67.7038 47.5774 73.8053 44.9141 81.2144C53.6729 86.0871 63.9571 85.7481 70.6216 83.3571Z" fill="black"/>
<path d="M43.903 8.77686L46.07 12.2513C45.8474 12.4042 45.596 12.5101 45.3311 12.5625C45.0662 12.6149 44.7934 12.6127 44.5293 12.556C44.2653 12.4994 44.0156 12.3895 43.7955 12.233C43.5754 12.0765 43.3895 11.8768 43.2493 11.646C42.9743 11.174 42.8888 10.6151 43.0102 10.0825C43.1315 9.54983 43.4507 9.08315 43.903 8.77686Z" fill="#263238"/>
<path d="M41.5364 12.7415L45.592 12.1362C45.6476 12.4043 45.6473 12.681 45.5912 12.9489C45.5351 13.2169 45.4244 13.4704 45.2659 13.6936C45.1074 13.9169 44.9046 14.1051 44.6701 14.2464C44.4357 14.3877 44.1746 14.4792 43.9031 14.5151C43.3566 14.5787 42.8064 14.4302 42.3661 14.1003C41.9258 13.7703 41.6288 13.284 41.5364 12.7415Z" fill="#263238"/>
<path d="M70.9849 10.1086C72.6737 11.1074 74.762 15.3627 74.5562 24.2729C74.3807 31.8272 71.9352 33.6916 70.7064 34.2303C69.4777 34.769 67.1048 34.4421 64.7986 34.0547V38.5885C64.7986 38.5885 67.9886 42.293 67.7828 44.3692C67.577 46.4454 63.1824 46.9418 60.2043 44.908C58.2702 43.5194 56.6116 41.7828 55.3134 39.787V28.8309C55.3134 28.8309 53.7577 30.9071 51.2094 29.2183C48.661 27.5295 48.5702 23.3407 50.0472 21.8396C51.5241 20.3384 54.7141 20.8105 55.3134 22.8868C55.3134 22.8868 58.9876 23.0199 63.8846 20.3323C65.7886 19.3066 67.4239 17.8462 68.6576 16.0698C69.8913 14.2934 70.6886 12.251 70.9849 10.1086Z" fill="#9C5456"/>
<path d="M65.2766 22.3721C65.2787 22.5584 65.226 22.7413 65.125 22.8979C65.0241 23.0545 64.8793 23.178 64.7086 23.253C64.538 23.328 64.3491 23.3511 64.1655 23.3196C63.9818 23.288 63.8115 23.2032 63.6756 23.0756C63.5398 22.948 63.4445 22.7833 63.4016 22.6019C63.3586 22.4206 63.3699 22.2306 63.4341 22.0557C63.4983 21.8807 63.6125 21.7285 63.7625 21.6179C63.9125 21.5074 64.0917 21.4433 64.2778 21.4338C64.405 21.4298 64.5318 21.4509 64.6508 21.4958C64.7699 21.5408 64.8789 21.6088 64.9717 21.696C65.0644 21.7831 65.1391 21.8877 65.1914 22.0037C65.2437 22.1197 65.2727 22.2449 65.2766 22.3721Z" fill="#263238"/>
<path d="M66.3784 28.7766L68.5817 29.4848C68.5414 29.6321 68.472 29.7697 68.3774 29.8896C68.2828 30.0095 68.1651 30.1091 68.0313 30.1825C67.8974 30.2559 67.7501 30.3017 67.5983 30.317C67.4464 30.3323 67.2929 30.3169 67.1471 30.2717C66.8503 30.1706 66.6043 29.9582 66.4609 29.6794C66.3175 29.4005 66.2879 29.0769 66.3784 28.7766Z" fill="#7D3336"/>
<path d="M73.067 19.4608L71.1421 18.123C71.2236 17.9944 71.3302 17.8835 71.4555 17.797C71.5809 17.7105 71.7224 17.6502 71.8716 17.6196C72.0208 17.5891 72.1746 17.589 72.3238 17.6194C72.4731 17.6497 72.6147 17.7098 72.7401 17.7962C73.0018 17.9755 73.1827 18.2503 73.2439 18.5616C73.305 18.8729 73.2415 19.1958 73.067 19.4608Z" fill="#263238"/>
<path d="M72.6252 21.7002C72.6274 21.8865 72.5747 22.0694 72.4737 22.226C72.3727 22.3826 72.2279 22.5061 72.0573 22.5811C71.8867 22.6561 71.6978 22.6792 71.5141 22.6477C71.3304 22.6162 71.1601 22.5313 71.0243 22.4037C70.8884 22.2761 70.7931 22.1114 70.7502 21.9301C70.7072 21.7487 70.7186 21.5588 70.7827 21.3838C70.8469 21.2088 70.9611 21.0566 71.1111 20.9461C71.2611 20.8355 71.4404 20.7715 71.6265 20.762C71.7537 20.7579 71.8804 20.779 71.9995 20.824C72.1185 20.869 72.2275 20.937 72.3203 21.0241C72.4131 21.1112 72.4877 21.2158 72.54 21.3318C72.5924 21.4478 72.6213 21.573 72.6252 21.7002Z" fill="#263238"/>
<path d="M67.9824 21.1433L68.1337 26.8635L71.1421 25.9313L67.9824 21.1433Z" fill="#7D3336"/>
<path d="M64.7986 34.0546C62.3774 33.7399 57.3715 32.3053 56.5967 30.3259C56.906 31.3273 57.517 32.2088 58.346 32.8501C59.8411 34.1273 64.7986 35.5679 64.7986 35.5679V34.0546Z" fill="#7D3336"/>
<path d="M138.937 139.379L92.3766 112.472V71.3295L91.396 70.7605V57.0381L138.937 84.4889V139.379Z" fill="#27DEBF"/>
<path opacity="0.1" d="M138.937 139.379L92.3766 112.472V71.3295L91.396 70.7605V57.0381L138.937 84.4889V139.379Z" fill="black"/>
<path opacity="0.15" d="M138.937 98.2117L122.261 88.5873V74.8406L121.111 74.199V87.9214L92.3765 71.3298V73.3031L121.111 89.8887L121.105 129.089L122.267 129.76L122.261 90.5545L138.937 100.179V98.2117Z" fill="black"/>
<path d="M138.937 139.379L185.237 112.666V71.4747L186.478 70.7605V57.0381L138.937 84.4889V139.379Z" fill="#27DEBF"/>
<path opacity="0.1" d="M185.243 71.4749L156.763 87.9211L156.757 74.1988L155.613 74.8404L155.607 88.5809L138.937 98.2114V100.179L155.607 90.5603L155.601 129.76L156.769 129.088L156.763 89.9005L185.243 73.4724V71.4749Z" fill="black"/>
<path d="M186.478 57.0383L138.937 29.5935L91.396 57.0383L138.937 84.4891L186.478 57.0383Z" fill="#27DEBF"/>
<path opacity="0.4" d="M186.478 57.0383L138.937 29.5935L91.396 57.0383L138.937 84.4891L186.478 57.0383Z" fill="white"/>
<path opacity="0.15" d="M130.935 57.5829L108.205 47.3531L109.222 46.7478L132.139 57.0441" fill="black"/>
<path opacity="0.15" d="M146.927 57.5829L169.651 47.3531L168.64 46.7478L145.723 57.0441" fill="black"/>
<path opacity="0.15" d="M156.757 74.1988L139.881 61.675L139.887 61.6689L138.937 60.9607L138.931 60.9667L138.925 60.9607L137.975 61.6689L137.981 61.675L121.104 74.1988L122.249 74.8405L138.931 62.3832L155.613 74.8405L156.757 74.1988Z" fill="black"/>
<path d="M168.652 67.3347V123.592L156.769 130.45L156.757 74.1989L168.652 67.3347Z" fill="#37474F"/>
<path d="M156.769 130.45L155.601 129.76L156.769 129.088V130.45Z" fill="#263238"/>
<path d="M109.216 67.3347V123.592L121.104 130.45L121.11 74.1989L109.216 67.3347Z" fill="#263238"/>
<path d="M121.104 130.45L122.267 129.76L121.104 129.088V130.45Z" fill="black"/>
<path d="M121.117 74.1989L138.943 60.9668L145.735 57.0383L168.652 46.748L156.764 39.8838L138.943 53.1159L132.152 57.0443L109.222 67.3346L121.117 74.1989Z" fill="#455A64"/>
<path d="M132.145 57.0442L130.941 57.5829L134.942 59.3565L137.987 61.6688L138.943 60.9606L135.971 58.7572L132.145 57.0442Z" fill="#263238"/>
<path d="M156.757 74.1989L135.971 58.7574L109.222 46.748L121.111 39.8838L141.915 55.3192L168.652 67.3346L156.757 74.1989Z" fill="#455A64"/>
<path d="M135.208 54.7864C135.208 54.7864 121.244 66.3781 98.4417 63.7389C98.4417 63.7389 108.127 70.0765 119.967 68.6419C119.967 68.6419 118.266 72.9639 108.29 78.224C108.29 78.224 133.211 78.454 139.651 57.7645L135.208 54.7864Z" fill="#37474F"/>
<path d="M122.079 75.5729C128.98 72.9822 136.51 67.8733 139.633 57.7828L135.19 54.8047C132.49 56.8513 129.538 58.5418 126.407 59.8348C126.407 59.8348 131.25 61.9534 136.189 60.6459C135.069 64.0132 133.226 67.0945 130.788 69.6733C128.351 72.2521 125.378 74.2658 122.079 75.5729Z" fill="#263238"/>
<path d="M104.246 39.6234C104.246 39.6234 107.019 36.3789 115.523 37.8438C120.656 38.7336 129.373 44.714 133.683 54.6775C134.227 55.9365 135.45 56.3602 136.104 57.2077C136.256 57.3974 136.422 57.5755 136.6 57.7403L139.294 57.7706C139.294 48.4609 134.07 39.0665 129.131 33.6308C124.191 28.1951 116.056 25.5378 110.257 25.332C108.201 25.237 106.151 25.6311 104.277 26.4821C102.691 30.8827 102.043 35.247 104.246 39.6234Z" fill="#37474F"/>
<path d="M133.09 53.4245C133.09 53.4245 137.932 51.7901 135.941 44.03C138.03 48.3183 139.168 53.0076 139.276 57.7766L136.582 57.7464C136.404 57.5815 136.238 57.4035 136.086 57.2137C135.432 56.3663 134.209 55.9425 133.665 54.6835C133.489 54.2477 133.289 53.8361 133.09 53.4245Z" fill="#263238"/>
<path d="M109.21 45.5856C107.17 43.9515 105.482 41.9213 104.247 39.6173C102.037 35.2409 102.691 30.8766 104.247 26.4639C99.259 28.6672 96.2809 35.1501 95.1671 40.386C94.5618 43.3157 94.4892 45.8338 94.9855 47.0444C96.3838 50.3373 104.574 63.6421 139.651 57.7826L139.615 54.0963C130.832 53.5515 115.493 50.876 109.21 45.5856Z" fill="#37474F"/>
<path d="M104.246 39.6234C104.246 39.6234 103.829 29.3694 110.257 25.332C108.201 25.237 106.151 25.6311 104.277 26.4821C102.691 30.8827 102.043 35.247 104.246 39.6234Z" fill="#263238"/>
<path d="M142.666 54.7864C142.666 54.7864 156.63 66.3781 179.432 63.7389C179.432 63.7389 169.747 70.0765 157.907 68.6419C157.907 68.6419 159.608 72.9639 169.584 78.224C169.584 78.224 144.663 78.454 138.223 57.7645L142.666 54.7864Z" fill="#37474F"/>
<path d="M141.685 60.6338C146.6 61.9413 151.467 59.8227 151.467 59.8227L150.553 59.4111L150.414 59.3505L149.603 58.9692L149.421 58.8844L148.683 58.5152C148.62 58.4866 148.56 58.4542 148.501 58.4183C148.265 58.3033 148.041 58.1823 147.817 58.0673L147.635 57.9704L147.03 57.6254L146.855 57.5285L146.286 57.2017L146.128 57.1109L145.596 56.8082L145.45 56.7235L144.99 56.4329L144.857 56.3482L144.451 56.0818L144.33 56.0032L143.979 55.7671L143.876 55.6945L143.58 55.4886L143.489 55.4221L143.253 55.2526L143.174 55.192L142.999 55.0589L142.92 54.9983L142.811 54.9197L142.738 54.8652L142.702 54.8289L142.66 54.7986L141.207 55.7731L138.217 57.7767C144.651 78.4662 169.572 78.2362 169.578 78.2362C156.757 77.6309 143.289 67.9036 141.685 60.6338Z" fill="#263238"/>
<path d="M173.627 39.6234C173.627 39.6234 170.855 36.3789 162.35 37.8438C157.217 38.7336 148.501 44.714 144.191 54.6775C143.646 55.9365 142.424 56.3602 141.77 57.2077C141.618 57.3974 141.452 57.5755 141.273 57.7403L138.58 57.7706C138.58 48.4609 143.804 39.0665 148.743 33.6308C153.682 28.1951 161.818 25.5378 167.617 25.332C169.673 25.237 171.723 25.6311 173.597 26.4821C175.177 30.8827 175.861 35.247 173.627 39.6234Z" fill="#37474F"/>
<path d="M144.784 53.4245C144.784 53.4245 139.942 51.7901 141.933 44.03C139.844 48.3183 138.706 53.0076 138.598 57.7766L141.292 57.7464C141.47 57.5815 141.636 57.4035 141.788 57.2137C142.442 56.3663 143.664 55.9425 144.209 54.6835C144.385 54.2477 144.584 53.8361 144.784 53.4245Z" fill="#263238"/>
<path d="M168.664 45.5856C170.704 43.9515 172.392 41.9213 173.627 39.6173C175.837 35.2409 175.183 30.8766 173.627 26.4639C178.615 28.6672 181.593 35.1501 182.707 40.386C183.312 43.3157 183.385 45.8338 182.889 47.0444C181.49 50.3373 173.3 63.6421 138.223 57.7826L138.259 54.0963C147.042 53.5515 162.381 50.876 168.664 45.5856Z" fill="#37474F"/>
<path d="M173.627 39.6234C173.627 39.6234 174.045 29.3694 167.617 25.332C169.673 25.237 171.723 25.6311 173.597 26.4821C175.177 30.8827 175.861 35.247 173.627 39.6234Z" fill="#263238"/>
<path d="M143.779 55.3373C143.741 54.9811 143.609 54.6415 143.396 54.3533C143.183 54.0651 142.898 53.8385 142.569 53.6969C141.404 53.2879 140.17 53.111 138.937 53.1763C137.669 53.111 136.402 53.3174 135.22 53.7816C134.918 53.9273 134.658 54.1487 134.466 54.4245C134.274 54.7002 134.156 55.0209 134.125 55.3554C133.998 56.4571 133.919 58.3215 134.645 59.3807C135.842 60.4058 137.374 60.9551 138.949 60.9243C140.518 60.9583 142.043 60.4082 143.229 59.3807C143.949 58.3033 143.876 56.4389 143.779 55.3373Z" fill="#455A64"/>
<path d="M58.2794 75.5366C45.7798 56.6811 39.7388 41.1791 49.8656 39.8232C52.9587 40.5436 55.1379 44.1088 57.8375 52.0566C57.8375 52.0566 63.3761 64.0538 65.864 69.1869C70.5249 72.9216 79.5016 81.2931 84.0233 83.1877C84.8284 83.5146 86.0087 82.8124 86.8259 82.5219C89.0292 81.7531 90.3004 82.2918 92.4492 82.1042C94.132 81.9589 94.9915 81.3718 95.1973 81.735C95.4473 82.1511 95.524 82.6487 95.4108 83.1208C95.2976 83.5929 95.0036 84.0016 94.592 84.2591C93.9443 84.7538 93.1744 85.0634 92.3645 85.155C92.3645 85.155 93.3814 85.9237 97.2917 85.9116C101.68 85.9116 103.387 87.0798 99.9248 91.4865C97.7517 94.2407 94.3136 95.076 86.608 92.3037C83.7555 91.3381 80.976 90.1688 78.291 88.805C72.9945 85.8995 74.871 87.1162 70.7065 84.477C67.3349 82.3403 59.4961 77.3888 58.2794 75.5366Z" fill="#9C5456"/>
<path d="M219.595 75.5368C234.461 55.2952 239.957 41.4638 229.824 40.1079C226.737 40.8282 224.552 44.3996 221.852 52.3473C221.852 52.3473 214.498 64.0601 212.016 69.1931C207.349 72.9279 198.372 81.2993 193.857 83.1939C193.058 83.5208 191.871 82.8186 191.054 82.5281C188.851 81.7593 187.58 82.2981 185.431 82.1104C183.748 81.9652 182.889 81.378 182.683 81.7412C182.433 82.1573 182.356 82.655 182.469 83.127C182.583 83.5991 182.877 84.0079 183.288 84.2653C183.936 84.76 184.706 85.0696 185.516 85.1612C185.516 85.1612 184.499 85.9299 180.588 85.9178C176.206 85.9178 174.499 87.0861 177.955 91.4927C180.128 94.2469 183.567 95.0822 191.272 92.3099C194.125 91.3443 196.904 90.1751 199.589 88.8112C204.892 85.9057 203.009 87.1224 207.174 84.4832C210.545 82.3404 218.293 77.3103 219.595 75.5368Z" fill="#FFB3B2"/>
<path d="M228.523 39.7688C228.523 39.7688 232.112 39.7688 233.922 41.5363C235.732 43.3038 236.41 46.5543 234.582 51.5481C232.754 56.542 227.76 64.7137 227.76 64.7137C227.76 64.7137 221.877 65.0345 216.647 59.732L221.865 50.0107C221.865 50.0107 223.88 42.6925 228.523 39.7688Z" fill="#27DEBF"/>
<path opacity="0.1" d="M228.523 39.7688C228.523 39.7688 232.112 39.7688 233.922 41.5363C235.732 43.3038 236.41 46.5543 234.582 51.5481C232.754 56.542 227.76 64.7137 227.76 64.7137C227.76 64.7137 221.877 65.0345 216.647 59.732L221.865 50.0107C221.865 50.0107 223.88 42.6925 228.523 39.7688Z" fill="black"/>
</g>
<defs>
<clipPath id="clip0_8_1799">
<rect width="277.868" height="264.031" fill="white"/>
</clipPath>
</defs>
</svg>
